<svg xmlns="http://www.w3.org/2000/svg" xmlns:xlink="http://www.w3.org/1999/xlink" width="1920" height="1080" viewBox="0 0 1920 1080">
  <defs>
    <style>
      .cls-1, .cls-22 {
        fill: #fff;
      }

      .cls-1, .cls-19, .cls-20 {
        stroke: #707070;
      }

      .cls-2 {
        clip-path: url(#clip-path);
      }

      .cls-3 {
        fill: #0e2038;
      }

      .cls-4 {
        fill: #6bc744;
        opacity: 0.38;
      }

      .cls-5 {
        fill: #45a735;
      }

      .cls-6 {
        fill: #dad800;
      }

      .cls-7 {
        fill: #8abb2a;
      }

      .cls-8 {
        fill: #248332;
      }

      .cls-9 {
        fill: #13253e;
      }

      .cls-10 {
        fill: #96999c;
      }

      .cls-11 {
        fill: #6d6f72;
      }

      .cls-12 {
        fill: #818386;
      }

      .cls-13 {
        fill: #2a8f9f;
      }

      .cls-14 {
        fill: #ffd124;
      }

      .cls-15 {
        fill: #fe9d2b;
      }

      .cls-16 {
        fill: #edeeef;
      }

      .cls-17 {
        fill: #e0e1e3;
      }

      .cls-18 {
        fill: #c7c9cb;
      }

      .cls-19 {
        fill: #317c8f;
      }

      .cls-20 {
        fill: rgba(37,157,171,0.6);
      }

      .cls-21 {
        fill: #34a2bd;
      }

      .cls-23, .cls-27 {
        fill: none;
      }

      .cls-24 {
        fill: #4e401c;
      }

      .cls-25 {
        fill: #8d712c;
      }

      .cls-26 {
        fill: #b58a3b;
      }

      .cls-27 {
        stroke: #000;
        stroke-miterlimit: 10;
        stroke-width: 3.434px;
      }

      .cls-28 {
        fill: #342904;
      }
    </style>
    <clipPath id="clip-path">
      <rect id="Rectangle_37" data-name="Rectangle 37" class="cls-1" width="1920" height="1080" transform="translate(1436 -3583)"/>
    </clipPath>
  </defs>
  <g id="Mask_Group_2" data-name="Mask Group 2" class="cls-2" transform="translate(-1436 3583)">
    <g id="Group_277" data-name="Group 277" transform="translate(1486.234 -3586)">
      <g id="Group_271" data-name="Group 271">
        <g id="Group_260" data-name="Group 260" transform="translate(-105.17 98)">
          <path id="Path_299" data-name="Path 299" class="cls-3" d="M1692.671,1650.117H491.43V627.976c1.744-7.6,8.055-12.349,15.74-11.031s13.944,7.251,17.628,14.122,5.2,14.663,6.661,22.321c4.542-10.776,16.9-13.521,25.777-5.906s7.583,23.915-2.379,30.039c9.314-5.661,22.118,1.221,26.432,11.229s-1.987,23.125-12.5,26.01c8.518-11.463,26.855-10.792,40.95-8.484s26.583,11.029,35.625,22.082c10.292,12.581,16.678,29.206,13.749,45.193s-16.826,30.3-33.078,30.487c9.363-.135,14.551,10.917,13.3,20.2s-11.754,16.116-20.745,13.5c10.121,6.759,13.5,21.457,12.568,33.593,8.8-5.848,19.12,2.016,23.065,11.822-.251-8.244,6.328-17.586,14-20.607a20.717,20.717,0,0,1,22.566,5.472c-4.924-3.282-5.177-11.44-2.356-16.643s8.118-8.551,13.413-11.189c5.558-2.77,11.483-5.047,17.678-5.474s12.723,1.18,17.308,5.368c4.781,4.366,6.934,11.034,7.163,17.506s-1.254,12.868-2.728,19.175c9.733-1.743,15.074,5.313,18.093,14.729s-1.866,20.7-10.8,24.937c5.339-3.574,12.7-6.095,17.522-1.852s7.281,10.594,8.542,16.893c1.24,6.2,1.435,12.875-1.216,18.618s-8.706,10.235-14.989,9.511c7.227,3.076,9.911,7.266,10.693,15.081a22.509,22.509,0,0,1-9.457,20.366c10.31-4.842,23.021,5.032,26.091,16,3.016-4.289,9.458-11.143,14.7-10.944a16.082,16.082,0,0,1,12.968,7.71c-1.712-5.861,2.175-12.816,7.088-16.444a15.427,15.427,0,0,1,17.2-.46c-1.4-9.976-.633-20.362.344-30.389s4.574-20.139,11.841-27.115c9.872-9.478,25.636-11.6,38.273-6.342s21.958,17.109,25.567,30.31,1.855,27.53-3.395,40.169c7.268-4.119,16.273-.349,21.583,6.1a18.523,18.523,0,0,1-.243,23.074c7.481-1.48,15.048,4.449,18.926,11.015a18.558,18.558,0,0,1-22.529,26.8c7.722,4.4,11.854,14.433,11.756,23.319a25.581,25.581,0,0,1-13.136,21.766c4.4-5.5,10.129-4.326,16.365-1.054s10.153,9.993,11.378,16.927.065,14.083-1.82,20.866c8.878-5.491,19.875-5.308,25.921,3.2.28-8.852-1.8-16.908,1.736-25.027s11.09-15.131,19.943-15.318c5.758-.119,11.248,2.617,15.74,6.22,13.379,10.727,19.142,30.039,13.829,46.343,9.76-3.933,19.676,2.111,23.846,11.771s-.639,22.223-10.194,26.629c3.047-3.931,11.423-.379,13.475,4.151s-.027,10.075-3.624,13.51-8.414,5.23-13.086,6.939c7.552.666,12,5.532,14.379,12.731a20.021,20.021,0,0,1-5.581,20.744c9.59-6.013,20.938-4.347,30.3,2.011a29.36,29.36,0,0,1-9.743,52.865c9.458,2.168,15.344,16.967,12.168,26.136,3.274-4.39,8.113-7.192,13.5-6.223a15.168,15.168,0,0,1,11.611,10.428,72.288,72.288,0,0,1,3.532-21.615c2.043-6.155,6.733-11.841,13.068-13.23,8.214-1.8,16.518,4.257,20.142,11.846s3.68,16.324,3.666,24.733c12.059-10.145,30.954-11.09,42.9-.807s14.942,29.5,6.7,42.936c7.389-2.291,13.554,2.685,19.284,7.885a22.821,22.821,0,0,1,6.874,21.094c6.322-2.3,13.407.309,18.734,4.417-2.043-7.094,3.87-16.3,10.418-19.712s14.706-2.725,21.343.512,11.912,8.75,16.2,14.757c2.27-7.255,6.717-7.983,14.154-6.409a16,16,0,0,1,12.153,16.869c-.664-3.728,3.892-6.292,7.637-6.843s7.513,1.384,10.111,4.138,4.24,6.25,5.839,9.682c.878-13.612,12.5-24.773,25.895-27.348s27.716,3.422,36.442,13.9c6.185,7.43,9.812,17.269,8.559,26.854s-7.87,18.6-17.1,21.49c6.6,1.614,12.833,5.937,17.47,10.9a18.092,18.092,0,0,1,2.225,21.043c6.506-2.782,14.746-1.336,20.384,2.943a18.628,18.628,0,0,1,11.817-15.307,18.955,18.955,0,0,1,19.116,3.948c-.738-6.67,2.914-13.19,9.288-15.291a15.241,15.241,0,0,1,17.4,6.61c-3.832-11.657-2.546-24,6.045-32.757a33.673,33.673,0,0,1,57.175,17.559,41.5,41.5,0,0,1,24.683-10.8c2.64-.2,5.429-.1,7.727,1.218s3.889,4.173,3,6.668c1.438-3.636,6.588-4.322,10.405-3.48a17.231,17.231,0,0,1,13.1,15.19c5.16-3.25,12.027-2.082,16.813,1.7a11.977,11.977,0,0,1,4.358,6.539,8.581,8.581,0,0,1-1.716,7.518c6.71-4.612,14.909-3.922,22.862-2.179a30.25,30.25,0,0,1,19.266,13.887c5.226,8.77,5.618,19.487,5.87,29.691l4.175,98.974,620.167,2.117Z" transform="translate(-502.43 -547.726)"/>
          <path id="Path_308" data-name="Path 308" class="cls-4" d="M2305.034,1650.117H491.43V627.976c1.744-7.6,8.055-12.349,15.74-11.031s13.944,7.251,17.628,14.122,5.2,14.663,6.661,22.321c4.542-10.776,16.9-13.521,25.777-5.906s7.583,23.915-2.379,30.039c9.314-5.661,22.118,1.221,26.432,11.229s-1.987,23.125-12.5,26.01c8.518-11.463,26.855-10.792,40.95-8.484s26.583,11.029,35.625,22.082c10.292,12.581,16.678,29.206,13.749,45.193s-16.826,30.3-33.078,30.487c9.363-.135,14.551,10.917,13.3,20.2s-11.754,16.116-20.745,13.5c10.121,6.759,13.5,21.457,12.568,33.593,8.8-5.848,19.12,2.016,23.065,11.822-.251-8.244,6.328-17.586,14-20.607a20.717,20.717,0,0,1,22.566,5.472c-4.924-3.282-5.177-11.44-2.356-16.643s8.118-8.551,13.413-11.189c5.558-2.77,11.483-5.047,17.678-5.474s12.723,1.18,17.308,5.368c4.781,4.366,6.934,11.034,7.163,17.506s-1.254,12.868-2.728,19.175c9.733-1.743,15.074,5.313,18.093,14.729s-1.866,20.7-10.8,24.937c5.339-3.574,12.7-6.095,17.522-1.852s7.281,10.594,8.542,16.893c1.24,6.2,1.435,12.875-1.216,18.618s-8.706,10.235-14.989,9.511c7.227,3.076,9.911,7.266,10.693,15.081a22.509,22.509,0,0,1-9.457,20.366c10.31-4.842,23.021,5.032,26.091,16,3.016-4.289,9.458-11.143,14.7-10.944a16.082,16.082,0,0,1,12.968,7.71c-1.712-5.861,2.175-12.816,7.088-16.444a15.427,15.427,0,0,1,17.2-.46c-1.4-9.976-.633-20.362.344-30.389s4.574-20.139,11.841-27.115c9.872-9.478,25.636-11.6,38.273-6.342s21.958,17.109,25.567,30.31,1.855,27.53-3.395,40.169c7.268-4.119,16.273-.349,21.583,6.1a18.523,18.523,0,0,1-.243,23.074c7.481-1.48,15.048,4.449,18.926,11.015a18.558,18.558,0,0,1-22.529,26.8c7.722,4.4,11.854,14.433,11.756,23.319a25.581,25.581,0,0,1-13.136,21.766c4.4-5.5,10.129-4.326,16.365-1.054s10.153,9.993,11.378,16.927.065,14.083-1.82,20.866c8.878-5.491,19.875-5.308,25.921,3.2.28-8.852-1.8-16.908,1.736-25.027s11.09-15.131,19.943-15.318c5.758-.119,11.248,2.617,15.74,6.22,13.379,10.727,19.142,30.039,13.829,46.343,9.76-3.933,19.676,2.111,23.846,11.771s-.639,22.223-10.194,26.629c3.047-3.931,11.423-.379,13.475,4.151s-.027,10.075-3.624,13.51-8.414,5.23-13.086,6.939c7.552.666,12,5.532,14.379,12.731a20.021,20.021,0,0,1-5.581,20.744c9.59-6.013,20.938-4.347,30.3,2.011a29.36,29.36,0,0,1-9.743,52.865c9.458,2.168,15.344,16.967,12.168,26.136,3.274-4.39,8.113-7.192,13.5-6.223a15.168,15.168,0,0,1,11.611,10.428,72.288,72.288,0,0,1,3.532-21.615c2.043-6.155,6.733-11.841,13.068-13.23,8.214-1.8,16.518,4.257,20.142,11.846s3.68,16.324,3.666,24.733c12.059-10.145,30.954-11.09,42.9-.807s14.942,29.5,6.7,42.936c7.389-2.291,13.554,2.685,19.284,7.885a22.821,22.821,0,0,1,6.874,21.094c6.322-2.3,13.407.309,18.734,4.417-2.043-7.094,3.87-16.3,10.418-19.712s14.706-2.725,21.343.512,11.912,8.75,16.2,14.757c2.27-7.255,6.717-7.983,14.154-6.409a16,16,0,0,1,12.153,16.869c-.664-3.728,3.892-6.292,7.637-6.843s7.513,1.384,10.111,4.138,4.24,6.25,5.839,9.682c.878-13.612,12.5-24.773,25.895-27.348s27.716,3.422,36.442,13.9c6.185,7.43,9.812,17.269,8.559,26.854s-7.87,18.6-17.1,21.49c6.6,1.614,12.833,5.937,17.47,10.9a18.092,18.092,0,0,1,2.225,21.043c6.506-2.782,14.746-1.336,20.384,2.943a18.628,18.628,0,0,1,11.817-15.307,18.955,18.955,0,0,1,19.116,3.948c-.738-6.67,2.914-13.19,9.288-15.291a15.241,15.241,0,0,1,17.4,6.61c-3.832-11.657-2.546-24,6.045-32.757a33.673,33.673,0,0,1,57.175,17.559,41.5,41.5,0,0,1,24.683-10.8c2.64-.2,5.429-.1,7.727,1.218s3.889,4.173,3,6.668c1.438-3.636,6.588-4.322,10.405-3.48a17.231,17.231,0,0,1,13.1,15.19c5.16-3.25,12.027-2.082,16.813,1.7a11.977,11.977,0,0,1,4.358,6.539,8.581,8.581,0,0,1-1.716,7.518c6.71-4.612,14.909-3.922,22.862-2.179a30.25,30.25,0,0,1,19.266,13.887c5.226,8.77,5.618,19.487,5.87,29.691l4.175,98.974,620.167,2.117Z" transform="translate(-512.43 -446.726)"/>
        </g>
        <g id="Group_270" data-name="Group 270">
          <g id="Group_269" data-name="Group 269">
            <g id="Group_268" data-name="Group 268">
              <g id="Group_267" data-name="Group 267" transform="translate(-744.751 285.628)">
                <path id="Path_355" data-name="Path 355" class="cls-5" d="M593.84,637.258S605.631,432.8,689.651,372.59c43.814-31.4-57.415,163.844-74.218,264.668Z" transform="translate(94.168 136.562) rotate(-16)"/>
                <path id="Path_350" data-name="Path 350" class="cls-6" d="M593.84,637.258S605.631,432.8,689.651,372.59c43.814-31.4-57.415,163.844-74.218,264.668Z" transform="translate(253.289 -42.809)"/>
                <path id="Path_357" data-name="Path 357" class="cls-5" d="M593.84,637.258S605.631,432.8,689.651,372.59c43.814-31.4-57.415,163.844-74.218,264.668Z" transform="translate(-2.236 550.641) rotate(-39)"/>
                <path id="Path_358" data-name="Path 358" class="cls-7" d="M599.49,637.23c28.537-147.7,68.773-229.484,92.831-267.994a8.88,8.88,0,0,0-2.85.876c-24.337,39.54-63.874,121.4-91.991,267.118Z" transform="translate(4.163 545.434) rotate(-39)"/>
                <path id="Path_351" data-name="Path 351" class="cls-5" d="M604.84,637.261S670.655,386.6,761.336,369.8c57.37-10.631-86.539,124.629-137.622,267.464Z" transform="translate(266.091 -42.811)"/>
                <path id="Path_352" data-name="Path 352" class="cls-7" d="M599.49,637.23c28.537-147.7,68.773-229.484,92.831-267.994a8.88,8.88,0,0,0-2.85.876c-24.337,39.54-63.874,121.4-91.991,267.118Z" transform="translate(257.525 -42.78)"/>
                <path id="Path_353" data-name="Path 353" class="cls-8" d="M723.655,410.893c-33.206,40.347-78.34,111.271-113.812,226.243h2.066c35.323-114.229,80.162-184.727,113.165-224.86a343.635,343.635,0,0,1,40.814-42.234,7.828,7.828,0,0,0-2.175-.725A346.87,346.87,0,0,0,723.655,410.893Z" transform="translate(271.914 -42.686)"/>
                <g id="Group_267-2" data-name="Group 267" transform="translate(829.857 424.827)">
                  <path id="Path_194" data-name="Path 194" class="cls-7" d="M691.819,400.886s-159.425,47.2-116.246,199.508C575.573,600.394,715.822,590.2,691.819,400.886Z" transform="translate(-568.155 -400.886)"/>
                  <path id="Path_195" data-name="Path 195" class="cls-6" d="M571.76,600.392c-.119-.415-.214-.818-.329-1.233,5.851-15.361,12.26-30.238,18.975-44.465l-14.056-61.358c.342-.755.673-1.523,1.028-2.268L591.451,552.5c7.541-15.831,15.437-30.848,23.328-44.837l-20.013-44.214c.353-.441.71-.876,1.065-1.311l19.868,43.9q5.895-10.386,11.722-19.979L612.91,444.239c.407-.368.811-.736,1.218-1.1l14.309,41.243c7.679-12.6,15.14-24.071,22.032-34.215l1.664-33.568c.524-.288,1.036-.56,1.551-.84L652.1,447.779c17.666-25.8,31.272-42.5,34.57-46.469.857-.279,1.337-.424,1.337-.424h0c.043.351.076.684.119,1.032-3.14,3.761-22.435,27.232-46.018,63.565l48.507-14.344c-.017.537-.043,1.062-.065,1.595l-49.7,14.695c-5.669,8.79-11.57,18.3-17.542,28.448l63.219-8.006c-.1.515-.195,1.047-.3,1.558l-63.881,8.093c-7.357,12.572-14.807,26.1-22.047,40.395l61.038,9.884c-.336.463-.677.911-1.015,1.365l-60.739-9.837c-6.4,12.715-12.633,26.031-18.481,39.832l53.767-4.388c-.766.576-1.534,1.149-2.3,1.7l-52.129,4.256q-4.057,9.643-7.838,19.585c-.543.056-.839.078-.839.078Z" transform="translate(-564.342 -400.886)"/>
                </g>
                <path id="Path_354" data-name="Path 354" class="cls-5" d="M846.466,544.669S836.112,508.89,807.3,517.238s-39.544-23.85-71.744-33.39-38.787,22.658-59.941,22.658-14.7-60.432-70.4-57.645-39.008,64.8-62.858,65.993S503,507.7,486.307,544.667Z" transform="translate(166.444 79.666)"/>
                <path id="Path_356" data-name="Path 356" class="cls-7" d="M599.49,637.23c28.537-147.7,68.773-229.484,92.831-267.994a8.88,8.88,0,0,0-2.85.876c-24.337,39.54-63.874,121.4-91.991,267.118Z" transform="translate(102.092 134.269) rotate(-16)"/>
                <path id="Path_360" data-name="Path 360" class="cls-9" d="M1103.793,1650.117H2305.034V627.976c-1.744-7.6-8.055-12.349-15.74-11.031s-13.944,7.251-17.628,14.122-5.2,14.663-6.661,22.321c-4.542-10.776-16.9-13.521-25.777-5.906s-7.583,23.915,2.379,30.039c-9.314-5.661-22.118,1.221-26.432,11.229s1.987,23.125,12.5,26.01c-8.518-11.463-26.855-10.792-40.95-8.484s-26.583,11.029-35.625,22.082c-10.292,12.581-16.678,29.206-13.749,45.193s16.826,30.3,33.078,30.487c-9.363-.135-14.551,10.917-13.3,20.2s11.755,16.116,20.745,13.5c-10.121,6.759-13.5,21.457-12.568,33.593-8.8-5.848-19.12,2.016-23.064,11.822.251-8.244-6.328-17.586-14-20.607a20.717,20.717,0,0,0-22.566,5.472c4.924-3.282,5.177-11.44,2.356-16.643s-8.118-8.551-13.413-11.189c-5.558-2.77-11.483-5.047-17.678-5.474s-12.723,1.18-17.308,5.368c-4.781,4.366-6.934,11.034-7.163,17.506s1.254,12.868,2.728,19.175c-9.733-1.743-15.074,5.313-18.093,14.729s1.866,20.7,10.8,24.937c-5.339-3.574-12.7-6.095-17.522-1.852s-7.281,10.594-8.542,16.893c-1.24,6.2-1.435,12.875,1.216,18.618s8.706,10.235,14.989,9.511c-7.227,3.076-9.911,7.266-10.693,15.081a22.508,22.508,0,0,0,9.457,20.366c-10.31-4.842-23.021,5.032-26.091,16-3.016-4.289-9.458-11.143-14.7-10.944a16.081,16.081,0,0,0-12.968,7.71c1.712-5.861-2.176-12.816-7.088-16.444a15.427,15.427,0,0,0-17.2-.46c1.4-9.976.633-20.362-.344-30.389s-4.574-20.139-11.841-27.115c-9.872-9.478-25.636-11.6-38.273-6.342s-21.958,17.109-25.567,30.31-1.855,27.53,3.4,40.169c-7.269-4.119-16.273-.349-21.583,6.1a18.523,18.523,0,0,0,.243,23.074c-7.481-1.48-15.048,4.449-18.926,11.015a18.558,18.558,0,0,0,22.529,26.8c-7.722,4.4-11.854,14.433-11.756,23.319a25.581,25.581,0,0,0,13.136,21.766c-4.4-5.5-10.129-4.326-16.365-1.054s-10.153,9.993-11.378,16.927-.065,14.083,1.82,20.866c-8.878-5.491-19.875-5.308-25.921,3.2-.28-8.852,1.8-16.908-1.736-25.027s-11.09-15.131-19.943-15.318c-5.758-.119-11.248,2.617-15.74,6.22-13.379,10.727-19.142,30.039-13.829,46.343-9.76-3.933-19.676,2.111-23.846,11.771s.639,22.223,10.194,26.629c-3.047-3.931-11.423-.379-13.475,4.151s.027,10.075,3.624,13.51,8.414,5.23,13.086,6.939c-7.552.666-12,5.532-14.379,12.731a20.021,20.021,0,0,0,5.581,20.744c-9.59-6.013-20.937-4.347-30.3,2.011a29.36,29.36,0,0,0,9.743,52.865c-9.458,2.168-15.344,16.967-12.168,26.136-3.274-4.39-8.113-7.192-13.5-6.223a15.168,15.168,0,0,0-11.611,10.428,72.288,72.288,0,0,0-3.532-21.615c-2.043-6.155-6.733-11.841-13.068-13.23-8.214-1.8-16.518,4.257-20.142,11.846s-3.68,16.324-3.666,24.733c-12.059-10.145-30.954-11.09-42.9-.807s-14.942,29.5-6.7,42.936c-7.389-2.291-13.554,2.685-19.284,7.885a22.821,22.821,0,0,0-6.874,21.094c-6.322-2.3-13.407.309-18.734,4.417,2.043-7.094-3.87-16.3-10.418-19.712s-14.706-2.725-21.343.512-11.912,8.75-16.2,14.757c-2.27-7.255-6.717-7.983-14.154-6.409a16,16,0,0,0-12.153,16.869c.664-3.728-3.892-6.292-7.637-6.843s-7.513,1.384-10.111,4.138-4.24,6.25-5.839,9.682c-.878-13.612-12.5-24.773-25.895-27.348s-27.716,3.422-36.442,13.9c-6.185,7.43-9.812,17.269-8.559,26.854s7.87,18.6,17.1,21.49c-6.6,1.614-12.833,5.937-17.47,10.9a18.092,18.092,0,0,0-2.225,21.043c-6.506-2.782-14.746-1.336-20.384,2.943a18.628,18.628,0,0,0-11.817-15.307,18.955,18.955,0,0,0-19.116,3.948c.738-6.67-2.914-13.19-9.288-15.291a15.241,15.241,0,0,0-17.4,6.61c3.832-11.657,2.546-24-6.045-32.757a33.674,33.674,0,0,0-57.175,17.559,41.5,41.5,0,0,0-24.683-10.8c-2.64-.2-5.429-.1-7.727,1.218s-3.889,4.173-3,6.668c-1.438-3.636-6.588-4.322-10.405-3.48a17.231,17.231,0,0,0-13.1,15.19c-5.16-3.25-12.027-2.082-16.813,1.7a11.977,11.977,0,0,0-4.358,6.539,8.581,8.581,0,0,0,1.716,7.518c-6.71-4.612-14.909-3.922-22.862-2.179a30.25,30.25,0,0,0-19.266,13.887c-5.226,8.77-5.618,19.487-5.87,29.691L1111.6,1633.2l-620.167,2.117Z" transform="translate(914.916 -1271.574) rotate(17)"/>
              </g>
              <g id="Group_261" data-name="Group 261" transform="translate(336.561 638.733)">
                <g id="Group_220" data-name="Group 220" transform="translate(171.879)">
                  <path id="Path_234" data-name="Path 234" class="cls-10" d="M553.32,394.7c0-44-26.072-46.463-26.072-46.463H400.712S374.64,350.7,374.64,394.7c0,51.166-16.67,65.291-28.385,76.178H581.7C569.99,459.994,553.32,445.869,553.32,394.7Z" transform="translate(-346.255 -263.339)"/>
                  <path id="Path_235" data-name="Path 235" class="cls-11" d="M432.48,310.909H397.107l-12.251,54.437h59.876Z" transform="translate(-297.069 -310.909)"/>
                  <path id="Path_236" data-name="Path 236" class="cls-12" d="M468.422,334.845H384.044l-8.166,30.464H476.587Z" transform="translate(-308.508 -280.408)"/>
                </g>
                <g id="Group_225" data-name="Group 225" transform="translate(126.205 134.389)">
                  <g id="Group_221" data-name="Group 221">
                    <path id="Path_237" data-name="Path 237" class="cls-10" d="M402.2,399.426c0-16.156-9.572-17.059-9.572-17.059H346.165s-9.572.9-9.572,17.059c0,18.785-6.12,23.97-10.421,27.969h86.446C408.318,423.4,402.2,418.211,402.2,399.426Z" transform="translate(-326.172 -351.196)"/>
                    <path id="Path_238" data-name="Path 238" class="cls-11" d="M357.83,368.661H344.842l-4.5,19.987h21.984Z" transform="translate(-308.113 -368.661)"/>
                    <path id="Path_239" data-name="Path 239" class="cls-12" d="M371.025,377.449H340.046l-3,11.185h36.975Z" transform="translate(-312.313 -357.462)"/>
                  </g>
                  <g id="Group_222" data-name="Group 222" transform="translate(86.446)">
                    <path id="Path_240" data-name="Path 240" class="cls-10" d="M440.206,399.426c0-16.156-9.572-17.059-9.572-17.059H384.176s-9.572.9-9.572,17.059c0,18.785-6.12,23.97-10.421,27.969h86.446C446.329,423.4,440.206,418.211,440.206,399.426Z" transform="translate(-364.183 -351.196)"/>
                    <path id="Path_241" data-name="Path 241" class="cls-11" d="M395.841,368.661H382.853l-4.5,19.987h21.984Z" transform="translate(-346.124 -368.661)"/>
                    <path id="Path_242" data-name="Path 242" class="cls-12" d="M409.036,377.449H378.057l-3,11.185h36.975Z" transform="translate(-350.324 -357.462)"/>
                  </g>
                  <g id="Group_223" data-name="Group 223" transform="translate(172.892)">
                    <path id="Path_243" data-name="Path 243" class="cls-10" d="M478.217,399.426c0-16.156-9.572-17.059-9.572-17.059H422.187s-9.572.9-9.572,17.059c0,18.785-6.12,23.97-10.421,27.969H488.64C484.34,423.4,478.217,418.211,478.217,399.426Z" transform="translate(-402.194 -351.196)"/>
                    <path id="Path_244" data-name="Path 244" class="cls-11" d="M433.852,368.661H420.864l-4.5,19.987h21.983Z" transform="translate(-384.135 -368.661)"/>
                    <path id="Path_245" data-name="Path 245" class="cls-12" d="M447.047,377.449H416.068l-3,11.185h36.975Z" transform="translate(-388.335 -357.462)"/>
                  </g>
                  <g id="Group_224" data-name="Group 224" transform="translate(259.338)">
                    <path id="Path_246" data-name="Path 246" class="cls-10" d="M516.228,399.426c0-16.156-9.572-17.059-9.572-17.059H460.2s-9.572.9-9.572,17.059c0,18.785-6.12,23.97-10.421,27.969h86.446C522.351,423.4,516.228,418.211,516.228,399.426Z" transform="translate(-440.205 -351.196)"/>
                    <path id="Path_247" data-name="Path 247" class="cls-11" d="M471.863,368.661H458.875l-4.5,19.987h21.984Z" transform="translate(-422.146 -368.661)"/>
                    <path id="Path_248" data-name="Path 248" class="cls-12" d="M485.058,377.449H454.079l-3,11.185h36.975Z" transform="translate(-426.346 -357.462)"/>
                  </g>
                </g>
                <g id="Group_231" data-name="Group 231" transform="translate(82.981 161.854)">
                  <g id="Group_226" data-name="Group 226">
                    <path id="Path_249" data-name="Path 249" class="cls-10" d="M383.192,411.229c0-16.156-9.572-17.059-9.572-17.059H327.161s-9.572.9-9.572,17.059c0,18.785-6.122,23.971-10.423,27.969h86.446C389.312,435.2,383.192,430.014,383.192,411.229Z" transform="translate(-307.166 -362.998)"/>
                    <path id="Path_250" data-name="Path 250" class="cls-11" d="M338.824,380.464H325.837l-4.5,19.987h21.984Z" transform="translate(-289.107 -380.464)"/>
                    <path id="Path_251" data-name="Path 251" class="cls-12" d="M352.02,389.252H321.04l-3,11.185h36.975Z" transform="translate(-293.307 -369.265)"/>
                  </g>
                  <g id="Group_227" data-name="Group 227" transform="translate(86.446)">
                    <path id="Path_252" data-name="Path 252" class="cls-10" d="M421.2,411.229c0-16.156-9.572-17.059-9.572-17.059H365.172s-9.572.9-9.572,17.059c0,18.785-6.122,23.971-10.423,27.969h86.446C427.323,435.2,421.2,430.014,421.2,411.229Z" transform="translate(-345.177 -362.998)"/>
                    <path id="Path_253" data-name="Path 253" class="cls-11" d="M376.835,380.464H363.848l-4.5,19.987h21.983Z" transform="translate(-327.118 -380.464)"/>
                    <path id="Path_254" data-name="Path 254" class="cls-12" d="M390.031,389.252H359.052l-3,11.185h36.975Z" transform="translate(-331.318 -369.265)"/>
                  </g>
                  <g id="Group_228" data-name="Group 228" transform="translate(172.892)">
                    <path id="Path_255" data-name="Path 255" class="cls-10" d="M459.214,411.229c0-16.156-9.572-17.059-9.572-17.059H403.183s-9.572.9-9.572,17.059c0,18.785-6.122,23.971-10.423,27.969h86.446C465.334,435.2,459.214,430.014,459.214,411.229Z" transform="translate(-383.188 -362.998)"/>
                    <path id="Path_256" data-name="Path 256" class="cls-11" d="M414.846,380.464H401.859l-4.5,19.987h21.984Z" transform="translate(-365.129 -380.464)"/>
                    <path id="Path_257" data-name="Path 257" class="cls-12" d="M428.042,389.252H397.063l-3,11.185H431.04Z" transform="translate(-369.329 -369.265)"/>
                  </g>
                  <g id="Group_229" data-name="Group 229" transform="translate(259.338)">
                    <path id="Path_258" data-name="Path 258" class="cls-10" d="M497.225,411.229c0-16.156-9.572-17.059-9.572-17.059H441.194s-9.572.9-9.572,17.059c0,18.785-6.122,23.971-10.423,27.969h86.446C503.345,435.2,497.225,430.014,497.225,411.229Z" transform="translate(-421.199 -362.998)"/>
                    <path id="Path_259" data-name="Path 259" class="cls-11" d="M452.857,380.464H439.87l-4.5,19.987h21.984Z" transform="translate(-403.14 -380.464)"/>
                    <path id="Path_260" data-name="Path 260" class="cls-12" d="M466.053,389.252H435.074l-3,11.185h36.975Z" transform="translate(-407.34 -369.265)"/>
                  </g>
                  <g id="Group_230" data-name="Group 230" transform="translate(345.785)">
                    <path id="Path_261" data-name="Path 261" class="cls-10" d="M535.236,411.229c0-16.156-9.572-17.059-9.572-17.059H479.205s-9.572.9-9.572,17.059c0,18.785-6.122,23.971-10.423,27.969h86.446C541.356,435.2,535.236,430.014,535.236,411.229Z" transform="translate(-459.21 -362.998)"/>
                    <path id="Path_262" data-name="Path 262" class="cls-11" d="M490.868,380.464H477.881l-4.5,19.987h21.983Z" transform="translate(-441.151 -380.464)"/>
                    <path id="Path_263" data-name="Path 263" class="cls-12" d="M504.064,389.252H473.085l-3,11.185h36.975Z" transform="translate(-445.351 -369.265)"/>
                  </g>
                </g>
                <g id="Group_238" data-name="Group 238" transform="translate(40.292 190.284)">
                  <g id="Group_232" data-name="Group 232">
                    <path id="Path_264" data-name="Path 264" class="cls-10" d="M364.418,423.032c0-16.156-9.572-17.059-9.572-17.059H308.388s-9.572.9-9.572,17.059c0,18.785-6.12,23.97-10.421,27.969h86.446C370.541,447,364.418,441.817,364.418,423.032Z" transform="translate(-288.395 -374.802)"/>
                    <path id="Path_265" data-name="Path 265" class="cls-11" d="M320.053,392.267H307.065l-4.5,19.987h21.983Z" transform="translate(-270.336 -392.267)"/>
                    <path id="Path_266" data-name="Path 266" class="cls-12" d="M333.249,401.055H302.269l-3,11.185h36.975Z" transform="translate(-274.536 -381.068)"/>
                  </g>
                  <g id="Group_233" data-name="Group 233" transform="translate(86.446)">
                    <path id="Path_267" data-name="Path 267" class="cls-10" d="M402.429,423.032c0-16.156-9.572-17.059-9.572-17.059H346.4s-9.572.9-9.572,17.059c0,18.785-6.12,23.97-10.421,27.969h86.446C408.552,447,402.429,441.817,402.429,423.032Z" transform="translate(-326.406 -374.802)"/>
                    <path id="Path_268" data-name="Path 268" class="cls-11" d="M358.064,392.267H345.076l-4.5,19.987h21.983Z" transform="translate(-308.347 -392.267)"/>
                    <path id="Path_269" data-name="Path 269" class="cls-12" d="M371.26,401.055H340.28l-3,11.185h36.975Z" transform="translate(-312.547 -381.068)"/>
                  </g>
                  <g id="Group_234" data-name="Group 234" transform="translate(172.892)">
                    <path id="Path_270" data-name="Path 270" class="cls-10" d="M440.44,423.032c0-16.156-9.572-17.059-9.572-17.059H384.41s-9.572.9-9.572,17.059c0,18.785-6.12,23.97-10.421,27.969h86.446C446.563,447,440.44,441.817,440.44,423.032Z" transform="translate(-364.417 -374.802)"/>
                    <path id="Path_271" data-name="Path 271" class="cls-11" d="M396.075,392.267H383.087l-4.5,19.987h21.983Z" transform="translate(-346.358 -392.267)"/>
                    <path id="Path_272" data-name="Path 272" class="cls-12" d="M409.271,401.055H378.291l-3,11.185h36.976Z" transform="translate(-350.558 -381.068)"/>
                  </g>
                  <g id="Group_235" data-name="Group 235" transform="translate(259.338)">
                    <path id="Path_273" data-name="Path 273" class="cls-10" d="M478.451,423.032c0-16.156-9.572-17.059-9.572-17.059H422.421s-9.572.9-9.572,17.059c0,18.785-6.12,23.97-10.421,27.969h86.446C484.574,447,478.451,441.817,478.451,423.032Z" transform="translate(-402.428 -374.802)"/>
                    <path id="Path_274" data-name="Path 274" class="cls-11" d="M434.086,392.267H421.1l-4.5,19.987h21.983Z" transform="translate(-384.369 -392.267)"/>
                    <path id="Path_275" data-name="Path 275" class="cls-12" d="M447.282,401.055H416.3l-3,11.185H450.28Z" transform="translate(-388.569 -381.068)"/>
                  </g>
                  <g id="Group_236" data-name="Group 236" transform="translate(345.785)">
                    <path id="Path_276" data-name="Path 276" class="cls-10" d="M516.462,423.032c0-16.156-9.572-17.059-9.572-17.059H460.432s-9.572.9-9.572,17.059c0,18.785-6.12,23.97-10.421,27.969h86.446C522.585,447,516.462,441.817,516.462,423.032Z" transform="translate(-440.439 -374.802)"/>
                    <path id="Path_277" data-name="Path 277" class="cls-11" d="M472.1,392.267H459.109l-4.5,19.987h21.983Z" transform="translate(-422.38 -392.267)"/>
                    <path id="Path_278" data-name="Path 278" class="cls-12" d="M485.292,401.055H454.313l-3,11.185h36.975Z" transform="translate(-426.58 -381.068)"/>
                  </g>
                  <g id="Group_237" data-name="Group 237" transform="translate(431.166)">
                    <path id="Path_279" data-name="Path 279" class="cls-10" d="M554.005,423.032c0-16.156-9.572-17.059-9.572-17.059H497.975s-9.572.9-9.572,17.059c0,18.785-6.12,23.97-10.421,27.969h86.446C560.125,447,554.005,441.817,554.005,423.032Z" transform="translate(-477.982 -374.802)"/>
                    <path id="Path_280" data-name="Path 280" class="cls-11" d="M509.64,392.267H496.652l-4.5,19.987h21.983Z" transform="translate(-459.923 -392.267)"/>
                    <path id="Path_281" data-name="Path 281" class="cls-12" d="M522.835,401.055H491.856l-3,11.185h36.975Z" transform="translate(-464.124 -381.068)"/>
                  </g>
                </g>
                <rect id="Rectangle_24" data-name="Rectangle 24" class="cls-11" width="517.612" height="26.843" transform="translate(40.291 239.641)"/>
                <rect id="Rectangle_25" data-name="Rectangle 25" class="cls-12" width="538.994" height="26.843" transform="translate(29.6 253.062)"/>
                <rect id="Rectangle_26" data-name="Rectangle 26" class="cls-10" width="598.194" height="41.58" transform="translate(0 266.484)"/>
              </g>
              <path id="Path_359" data-name="Path 359" class="cls-13" d="M2542.771,828.733s-59.12-141.758-223.631-108.682-225.793-94.494-409.652-132.293-221.469,89.77-342.254,89.77-83.917-239.432-401.967-228.39S942.538,705.879,806.359,710.6,581.64,682.251,486.307,828.725Z" transform="translate(-1025.31 323.309)"/>
              <g id="Group_262" data-name="Group 262" transform="translate(187.467 288.541)">
                <g id="Group_209" data-name="Group 209" transform="translate(136.661)">
                  <path id="Path_212" data-name="Path 212" class="cls-14" d="M317,207.555s-47.977,48.936-13.433,75.8h26.867C364.978,256.491,317,207.555,317,207.555Z" transform="translate(-291.062 -207.555)"/>
                  <g id="Group_208" data-name="Group 208" transform="translate(0.192 9.32)">
                    <path id="Path_213" data-name="Path 213" class="cls-15" d="M294.961,228.933q-.835,1.626-1.605,3.3l29.721-18.977q-.594-.791-1.167-1.534Z" transform="translate(-288.42 -211.724)"/>
                    <path id="Path_214" data-name="Path 214" class="cls-15" d="M291.148,248.55q.158,1.019.387,2.03L337,221.547q-.412-.875-.845-1.739Z" transform="translate(-291.148 -201.736)"/>
                    <path id="Path_215" data-name="Path 215" class="cls-15" d="M336.608,229.355l-40.646,25.954c.44.376.89.747,1.361,1.113h.46l38.909-24.843C336.689,230.839,336.655,230.1,336.608,229.355Z" transform="translate(-285.2 -189.94)"/>
                  </g>
                </g>
                <rect id="Rectangle_21" data-name="Rectangle 21" class="cls-16" width="78.682" height="12.474" transform="translate(123.258 74.84)"/>
                <path id="Path_216" data-name="Path 216" class="cls-17" d="M364.089,246.613h-79.12s18.533,0,18.533,30.7-18.533,332-18.533,332h79.12s-18.533-301.3-18.533-332S364.089,246.613,364.089,246.613Z" transform="translate(-161.929 -159.298)"/>
                <path id="Path_217" data-name="Path 217" class="cls-18" d="M392.311,408.859H229.931v21.108s45.1,14.395,72.923,57.574H481.768c27.826-43.179,72.925-57.574,72.925-57.574V408.859Z" transform="translate(-229.93 41.162)"/>
                <rect id="Rectangle_22" data-name="Rectangle 22" class="cls-17" width="324.762" height="21.11" transform="translate(0 450.02)"/>
              </g>
              <path id="Path_301" data-name="Path 301" class="cls-19" d="M-22.155,957.907s393.328-409.6,791.943-97.62S2338.624,228.2,2563.557,339.646s0,962.778,0,962.778H1277.819L-94.15,1250.767Z" transform="translate(-153.063 51.71)"/>
              <path id="Path_302" data-name="Path 302" class="cls-20" d="M1651.577,407.941c-46.189-48-692.229,292.227-819.022,471.247s589.587,231.246,589.587,231.246S1697.766,455.942,1651.577,407.941Z" transform="translate(345.398 226.207)"/>
              <path id="Path_303" data-name="Path 303" class="cls-21" d="M486.307,934.721s31.51-181.3,119.193-139S725.846,674.87,823.842,626.528s118.041,114.81,182.419,114.81,44.727-306.219,214.245-292.1,118.713,328.357,191.3,334.4,119.773-36.26,170.585,151.07Z" transform="translate(967.847 145.279)"/>
              <path id="Path_349" data-name="Path 349" class="cls-13" d="M2542.771,828.733s-59.12-141.758-223.631-108.682-225.793-94.494-409.652-132.293-221.469,89.77-342.254,89.77-83.917-239.432-401.967-228.39S942.538,705.879,806.359,710.6,581.64,682.251,486.307,828.725Z" transform="translate(-1582.771 323.309)"/>
            </g>
          </g>
        </g>
      </g>
      <g id="Group_265" data-name="Group 265" transform="translate(960 342.175)">
        <g id="Group_4" data-name="Group 4" transform="translate(0 317.323)">
          <path id="Path_3" data-name="Path 3" class="cls-22" d="M469.491,742.659" transform="translate(-469.491 -742.659)"/>
        </g>
        <g id="Group_5" data-name="Group 5" transform="translate(650.775 308.347)">
          <line id="Line_1" data-name="Line 1" class="cls-23" y1="0.962"/>
        </g>
        <g id="Group_6" data-name="Group 6" transform="translate(650.775 292.659)">
          <line id="Line_2" data-name="Line 2" class="cls-23" y1="0.89"/>
        </g>
        <g id="Group_7" data-name="Group 7" transform="translate(507.516 401.942)">
          <path id="Path_4" data-name="Path 4" class="cls-24" d="M1218.742,945.016h-20.979l-4.086-81.612,28.373,2.188-3.308,79.424" transform="translate(-1193.677 -863.404)"/>
        </g>
        <g id="Group_8" data-name="Group 8" transform="translate(512.128 483.553)">
          <rect id="Rectangle_2" data-name="Rectangle 2" class="cls-25" width="20.453" height="12.658" transform="translate(0 0)"/>
        </g>
        <g id="Group_9" data-name="Group 9" transform="translate(512.128 496.211)">
          <path id="Path_5" data-name="Path 5" class="cls-26" d="M1200.258,997.919h18.247l-.1,1.88-1.3.1v1.554H1202.89v-2.406l-.977.3v-1.433h-1.654" transform="translate(-1200.258 -997.919)"/>
        </g>
        <g id="Group_10" data-name="Group 10" transform="translate(512.128 499.745)">
          <path id="Path_6" data-name="Path 6" class="cls-24" d="M1215.9,1023.1l-8.82-1.038-2.406-8.422-4.411-2.406v-1.021l1.554-.182-.05-1.153,1.128-.5v-5.414H1217.1v6.768l1.4.2v1.8l2.206-.5-2.707,3.309-2.108,8.557" transform="translate(-1200.258 -1002.962)"/>
        </g>
        <g id="Group_11" data-name="Group 11" transform="translate(435.429 518.845)">
          <path id="Path_7" data-name="Path 7" class="cls-25" d="M1110.666,1030.216h63.665l46.42,1.654v6.467h5.715v5.715h9.926v6.016H1090.815v-5.715l12.332-.3.3-7.219,7.444-.075Z" transform="translate(-1090.815 -1030.216)"/>
        </g>
        <g id="Group_12" data-name="Group 12" transform="translate(457.687 384.697)">
          <path id="Path_8" data-name="Path 8" class="cls-25" d="M1161.075,972.945l2.406-134.148h-4.512v3.91l-3.309.3-1.5,4.813v3.008l-2.406.3-1.8,4.512v5.715h-6.617v13.535l-4.211,23.26v20.854l-3.409,15.039V955.5l-3.609.2-1.2,8.221-5.013.4-3.308,8.622Z" transform="translate(-1122.575 -838.797)"/>
        </g>
        <g id="Group_13" data-name="Group 13" transform="translate(472.425 419.789)">
          <path id="Path_9" data-name="Path 9" class="cls-26" d="M1169.143,888.871h-24.135v2h-1.4v4.712h1.4v1.5H1169Z" transform="translate(-1143.605 -888.871)"/>
        </g>
        <g id="Group_14" data-name="Group 14" transform="translate(470.62 442.353)">
          <path id="Path_10" data-name="Path 10" class="cls-26" d="M1167.968,921.068h-25.134v1.3h-1.8v6.417h1.4l-.05,1.7H1167.8Z" transform="translate(-1141.03 -921.068)"/>
        </g>
        <g id="Group_15" data-name="Group 15" transform="translate(468.816 471.619)">
          <path id="Path_11" data-name="Path 11" class="cls-26" d="M1166.673,962.828H1140.26v1.207h-1.8v6.016h1.8l.2,1.1h26.064Z" transform="translate(-1138.455 -962.828)"/>
        </g>
        <g id="Group_16" data-name="Group 16" transform="translate(467.161 497.644)">
          <path id="Path_12" data-name="Path 12" class="cls-26" d="M1165.5,999.964h-27.751v1.349h-1.654v7.369h1.654v1.654h27.565Z" transform="translate(-1136.094 -999.964)"/>
        </g>
        <g id="Group_17" data-name="Group 17" transform="translate(496.186 383.895)">
          <path id="Path_13" data-name="Path 13" class="cls-24" d="M1179.917,837.653l4.913,2.206v4.813l3.008,1V854.1l1,1.6v8.221l1.2,1.8v25.065l2.406,6.417v28.169l1,4.163v32.235l4.411,2.406,2.406,8.422h-22.759Z" transform="translate(-1177.511 -837.653)"/>
        </g>
        <g id="Group_18" data-name="Group 18" transform="translate(497.816 418.785)">
          <path id="Path_14" data-name="Path 14" class="cls-25" d="M1179.983,888.443l12.561-1v1l1.078-.164v5.414l-.9.414-.037.9-12.846,1.654Z" transform="translate(-1179.836 -887.439)"/>
        </g>
        <g id="Group_19" data-name="Group 19" transform="translate(497.559 440.943)">
          <path id="Path_15" data-name="Path 15" class="cls-25" d="M1179.469,920.466l14.719-1.41v1.7l1.138-.172v6.777l-.874.188v1.278l-14.983,1.73Z" transform="translate(-1179.469 -919.056)"/>
        </g>
        <g id="Group_20" data-name="Group 20" transform="translate(496.868 470.219)">
          <path id="Path_16" data-name="Path 16" class="cls-25" d="M1178.649,962.23l15.7-1.4v1.4l1.053-.3v6.116l-1.153.4v1l-15.761,1.757Z" transform="translate(-1178.484 -960.83)"/>
        </g>
        <g id="Group_21" data-name="Group 21" transform="translate(496.567 496.211)">
          <path id="Path_17" data-name="Path 17" class="cls-25" d="M1178.054,999.352l17.215-1.433v1.433l.978-.3v7.82l-1.128.5.05,1.153-17.115,2.005Z" transform="translate(-1178.054 -997.919)"/>
        </g>
        <g id="Group_22" data-name="Group 22" transform="translate(527.766 383.895)">
          <path id="Path_18" data-name="Path 18" class="cls-25" d="M1222.572,973.64l2.108-8.557,2.707-3.309V864.923l3.308-3.609V837.653l5.715,3.509v4.512l3.308,3.309V857.1l3.309,2.707v3.309l3.309.3v11.43l3.008,19.851v20.754l3.308,9.922v24.592h2.406v12.608l4.812,4.311v6.752Z" transform="translate(-1222.572 -837.653)"/>
        </g>
        <g id="Group_23" data-name="Group 23" transform="translate(530.074 418.785)">
          <path id="Path_19" data-name="Path 19" class="cls-26" d="M1228.373,887.439h20.6v1h1.053v5.914h-1.2v1.8h-22.057v-1l-.9-.3V887.94h1.1l-.1-.5Z" transform="translate(-1225.866 -887.439)"/>
        </g>
        <g id="Group_24" data-name="Group 24" transform="translate(529.724 440.943)">
          <path id="Path_20" data-name="Path 20" class="cls-26" d="M1226.418,919.056h25.642v1.354h.752v5.64h-1.128l.075,1.429h-25.341v-1.429l-1.053.075V920.56h1.053Z" transform="translate(-1225.366 -919.056)"/>
        </g>
        <g id="Group_25" data-name="Group 25" transform="translate(528.972 473.628)">
          <path id="Path_21" data-name="Path 21" class="cls-26" d="M1225.6,965.694h29.075v1.1h1.1v5.867h-1.1l-.1,1.953H1225.6v-1.5h-1.3V966.9h1.5Z" transform="translate(-1224.293 -965.694)"/>
        </g>
        <g id="Group_26" data-name="Group 26" transform="translate(528.972 496.211)">
          <path id="Path_22" data-name="Path 22" class="cls-26" d="M1225.7,997.919h31.382v1.433h1.5v9.37h-1.7v1.8l-31.181-.3v-1.8l-1.4-.2V999.9l1.3-.1Z" transform="translate(-1224.293 -997.919)"/>
        </g>
        <g id="Group_27" data-name="Group 27" transform="translate(527.766 508.017)">
          <path id="Path_23" data-name="Path 23" class="cls-25" d="M1227.387,1014.765l-2.707,3.309-2.108,8.557h37.3v-6.753l-4.812-4.311Z" transform="translate(-1222.572 -1014.765)"/>
        </g>
        <g id="Group_28" data-name="Group 28" transform="translate(297.973 525.161)">
          <path id="Path_24" data-name="Path 24" class="cls-24" d="M1044.463,1046.748l-149.788-3.91v-3.609l149.945,3.76Z" transform="translate(-894.675 -1039.229)"/>
        </g>
        <g id="Group_29" data-name="Group 29" transform="translate(317.824 461.997)">
          <path id="Path_25" data-name="Path 25" class="cls-25" d="M923,1012.761v-6.814l2.206-2.406v-3.81l3.008-3.81V986.4l1.7-16.743h-3.459V958.72L923,957.32V949.1h6.918v8.221l3.108,7.72,2.206.2,3.208-7.92V949.1h6.417v8.221l-2.807,1.4.2,10.331h-3.609l1.6,18.849-.2,8.021,2.807,3.81v4.612l2.005,1.6v7.362Z" transform="translate(-923.002 -949.099)"/>
        </g>
        <g id="Group_30" data-name="Group 30" transform="translate(339.681 518.845)">
          <path id="Path_26" data-name="Path 26" class="cls-25" d="M954.189,1030.216l115.692,2.693.133,3.849-7.444.075-.144,3.459-108.237-2.714Z" transform="translate(-954.189 -1030.216)"/>
        </g>
        <g id="Group_31" data-name="Group 31" transform="translate(336.728 511.343)">
          <path id="Path_27" data-name="Path 27" class="cls-26" d="M1072.392,1023.216l-122.416-3.7.947,1.286v4.612l2.005,1.6,115.693,2.693-.093-2.693h2.406Z" transform="translate(-949.976 -1019.511)"/>
        </g>
        <g id="Group_32" data-name="Group 32" transform="translate(334.868 508.819)">
          <path id="Path_28" data-name="Path 28" class="cls-26" d="M1073.02,1018.434l-1.422,3.7-122.416-3.7-1.86-2.524Z" transform="translate(-947.322 -1015.91)"/>
        </g>
        <g id="Group_33" data-name="Group 33" transform="translate(334.679 496.211)">
          <path id="Path_29" data-name="Path 29" class="cls-24" d="M1079.534,1000.7l-132.483-2.782.39,4.587-.2,8.021,125.7,2.524.43-1.12,5.013-.4,1.2-8.221Z" transform="translate(-947.052 -997.919)"/>
        </g>
        <g id="Group_34" data-name="Group 34" transform="translate(334.679 491.975)">
          <path id="Path_30" data-name="Path 30" class="cls-26" d="M1082.993,993.279l-135.942-1.4v4.236l134.137,2.782v-1.349h2.005Z" transform="translate(-947.052 -991.875)"/>
        </g>
        <g id="Group_35" data-name="Group 35" transform="translate(333.91 487.176)">
          <path id="Path_31" data-name="Path 31" class="cls-25" d="M1082.865,985.816l-136.911-.789.769,4.8,135.942,1.4Z" transform="translate(-945.954 -985.027)"/>
        </g>
        <g id="Group_36" data-name="Group 36" transform="translate(333.465 478.841)">
          <path id="Path_32" data-name="Path 32" class="cls-25" d="M1082.475,973.134l.2,9.124-136.911-.789-.445-5.227h3.609l-.346-3.108Z" transform="translate(-945.32 -973.134)"/>
        </g>
        <g id="Group_37" data-name="Group 37" transform="translate(324.141 429.814)">
          <path id="Path_33" data-name="Path 33" class="cls-25" d="M932.015,903.176v3.008l54.441,3.008v-6.016Z" transform="translate(-932.015 -903.176)"/>
        </g>
        <g id="Group_38" data-name="Group 38" transform="translate(378.582 429.814)">
          <path id="Path_34" data-name="Path 34" class="cls-24" d="M1068.5,908.289l-58.8.9v-6.016l58.8,1.5Z" transform="translate(-1009.698 -903.176)"/>
        </g>
        <g id="Group_39" data-name="Group 39" transform="translate(330.457 404.248)">
          <rect id="Rectangle_3" data-name="Rectangle 3" class="cls-26" width="4.222" height="25.566"/>
        </g>
        <g id="Group_40" data-name="Group 40" transform="translate(330.457 433.171)">
          <path id="Path_35" data-name="Path 35" class="cls-26" d="M941.028,907.966l.7,42.237,2.1-5.19v-8.221h1.415V907.966Z" transform="translate(-941.028 -907.966)"/>
        </g>
        <g id="Group_41" data-name="Group 41" transform="translate(334.679 404.248)">
          <rect id="Rectangle_4" data-name="Rectangle 4" class="cls-25" width="2.596" height="25.566"/>
        </g>
        <g id="Group_42" data-name="Group 42" transform="translate(375.574 404.248)">
          <path id="Path_36" data-name="Path 36" class="cls-26" d="M1005.406,866.695v25.566h5.815V866.695Z" transform="translate(-1005.406 -866.695)"/>
        </g>
        <g id="Group_43" data-name="Group 43" transform="translate(375.574 435.83)">
          <path id="Path_37" data-name="Path 37" class="cls-26" d="M1005.406,911.76l1,43.012h4.813V911.76h-5.815Z" transform="translate(-1005.406 -911.76)"/>
        </g>
        <g id="Group_44" data-name="Group 44" transform="translate(381.389 435.83)">
          <rect id="Rectangle_5" data-name="Rectangle 5" class="cls-25" width="2.607" height="43.011" transform="translate(0 0)"/>
        </g>
        <g id="Group_45" data-name="Group 45" transform="translate(381.389 404.248)">
          <path id="Path_38" data-name="Path 38" class="cls-25" d="M1013.7,866.695v25.566l2.607.138v-25.7Z" transform="translate(-1013.704 -866.695)"/>
        </g>
        <g id="Group_46" data-name="Group 46" transform="translate(429.313 404.248)">
          <rect id="Rectangle_6" data-name="Rectangle 6" class="cls-25" width="5.013" height="26.864"/>
        </g>
        <g id="Group_47" data-name="Group 47" transform="translate(429.313 435.83)">
          <rect id="Rectangle_7" data-name="Rectangle 7" class="cls-25" width="5.013" height="43.011" transform="translate(0 0)"/>
        </g>
        <g id="Group_48" data-name="Group 48" transform="translate(337.275 406.732)">
          <path id="Path_39" data-name="Path 39" class="cls-25" d="M950.756,870.24l3.208,1.426v2.206l8.622,2.206,2.256,1.6v-3.409H967.2l2.206,3.409,3.81,2.857,2.206-3.258,4.211,1.6v3.409l5.414,2.607,4.01-3.712v12.134h-38.3Z" transform="translate(-950.756 -870.24)"/>
        </g>
        <g id="Group_49" data-name="Group 49" transform="translate(384.196 451.37)">
          <path id="Path_40" data-name="Path 40" class="cls-26" d="M1017.709,933.934l3.857,1.714V938.3l10.364,2.651,2.711,1.928v-4.1h2.832l2.651,4.1,4.58,3.435,2.651-3.917,5.062,1.928v4.1l6.507,3.133,4.821-4.463v14.586h-46.036Z" transform="translate(-1017.709 -933.934)"/>
        </g>
        <g id="Group_50" data-name="Group 50" transform="translate(383.996 401.642)">
          <path id="Path_41" data-name="Path 41" class="cls-26" d="M1063.659,862.977l-3.857,1.714v2.651l-10.364,2.651-2.712,1.928v-4.1H1043.9l-2.651,4.1-4.579,3.435-2.651-3.917-5.062,1.928v4.1l-6.508,3.133-4.82-4.462-.2,15.151,45.318,1.159Z" transform="translate(-1017.423 -862.977)"/>
        </g>
        <g id="Group_51" data-name="Group 51" transform="translate(302.936 400.338)">
          <path id="Path_42" data-name="Path 42" class="cls-24" d="M901.757,865.025H980.21l77.755,2.484v-2.484l-77.728-3.91h-78.48Z" transform="translate(-901.757 -861.115)"/>
        </g>
        <g id="Group_52" data-name="Group 52" transform="translate(303.688 395.325)">
          <path id="Path_43" data-name="Path 43" class="cls-25" d="M902.83,855.767v3.208h77.728l75.37,3.792v-3.792l-75.37-5.013Z" transform="translate(-902.83 -853.962)"/>
        </g>
        <g id="Group_53" data-name="Group 53" transform="translate(281.931 384.697)">
          <path id="Path_44" data-name="Path 44" class="cls-24" d="M893.541,854.438l-21.756-11.63,88.229,2.807,21.255-6.818,85.02,10.628-19.65,5.013-75.369-5.013-77.728,1.8Z" transform="translate(-871.785 -838.797)"/>
        </g>
        <g id="Group_54" data-name="Group 54" transform="translate(281.931 339.279)">
          <path id="Path_45" data-name="Path 45" class="cls-26" d="M951.993,779.3l-80.208,44.114,88.229,2.807,21.255-6.818,85.02,10.628-75.6-56.045H971.27Z" transform="translate(-871.785 -773.99)"/>
        </g>
        <g id="Group_55" data-name="Group 55" transform="translate(368.751 332.161)">
          <path id="Path_46" data-name="Path 46" class="cls-26" d="M995.671,774.442V763.832h1.81l10.855,7.118Z" transform="translate(-995.671 -763.832)"/>
        </g>
        <g id="Group_56" data-name="Group 56" transform="translate(381.416 322.536)">
          <path id="Path_47" data-name="Path 47" class="cls-25" d="M1027.15,766.842h-13.408v-9.525l2.781-1.4,1.4-5.815,3.409,3.208Z" transform="translate(-1013.742 -750.098)"/>
        </g>
        <g id="Group_57" data-name="Group 57" transform="translate(381.416 339.279)">
          <path id="Path_48" data-name="Path 48" class="cls-25" d="M1013.742,773.99l10,45.418,85.02,10.628-75.6-56.045Z" transform="translate(-1013.742 -773.99)"/>
        </g>
        <g id="Group_58" data-name="Group 58" transform="translate(506.513 397.129)">
          <path id="Path_49" data-name="Path 49" class="cls-25" d="M1193.249,863.656l28.373-.119v-7h-29.376v3.208Z" transform="translate(-1192.247 -856.537)"/>
        </g>
        <g id="Group_59" data-name="Group 59" transform="translate(544.712 397.129)">
          <path id="Path_50" data-name="Path 50" class="cls-25" d="M1246.754,856.537h116.4l24.263,3.559,58.953.852v4.412h-59.153l-24.865-3.008-115.4.4Z" transform="translate(-1246.754 -856.537)"/>
        </g>
        <g id="Group_60" data-name="Group 60" transform="translate(544.913 402.944)">
          <path id="Path_51" data-name="Path 51" class="cls-24" d="M1250.348,869.447v-1.5l-3.309-2.707,115.4-.4,24.864,3.008h55.143v3.409H1387.7l-25.065-1.8Z" transform="translate(-1247.04 -864.835)"/>
        </g>
        <g id="Group_61" data-name="Group 61" transform="translate(557.846 483.553)">
          <rect id="Rectangle_8" data-name="Rectangle 8" class="cls-25" width="130.338" height="4.612" transform="translate(0 0)"/>
        </g>
        <g id="Group_62" data-name="Group 62" transform="translate(557.846 488.165)">
          <rect id="Rectangle_9" data-name="Rectangle 9" class="cls-25" width="132.945" height="5.815"/>
        </g>
        <g id="Group_63" data-name="Group 63" transform="translate(557.846 493.98)">
          <path id="Path_52" data-name="Path 52" class="cls-26" d="M1401.447,998.947l-130.538.8V998.4h-1.5v-1.433h-3.91v-2.231h135.952Z" transform="translate(-1265.495 -994.736)"/>
        </g>
        <g id="Group_64" data-name="Group 64" transform="translate(560.253 498.226)">
          <path id="Path_53" data-name="Path 53" class="cls-24" d="M1396.86,1021.413H1273.741V1015.7l-4.812-4.311h1.3v-1.8h1.7v-8.021l124.924-.768Z" transform="translate(-1268.928 -1000.794)"/>
        </g>
        <g id="Group_65" data-name="Group 65" transform="translate(569.677 501.6)">
          <path id="Path_54" data-name="Path 54" class="cls-26" d="M1394.166,1019.245H1284.682a2.306,2.306,0,0,0-2.307-2.306v-9.023a2.306,2.306,0,0,0,2.307-2.306h109.484a2.306,2.306,0,0,0,2.306,2.306v9.023A2.306,2.306,0,0,0,1394.166,1019.245Z" transform="translate(-1282.376 -1005.609)"/>
        </g>
        <g id="Group_66" data-name="Group 66" transform="translate(565.065 518.845)">
          <path id="Path_55" data-name="Path 55" class="cls-26" d="M1276.1,1038.337h129.937l-1.5-8.121H1275.8Z" transform="translate(-1275.795 -1030.216)"/>
        </g>
        <g id="Group_67" data-name="Group 67" transform="translate(571.081 526.966)">
          <path id="Path_56" data-name="Path 56" class="cls-24" d="M1427.851,1053.534V1041.8H1284.379v5.715h9.926l-.3,3.91Z" transform="translate(-1284.379 -1041.804)"/>
        </g>
        <g id="Group_68" data-name="Group 68" transform="translate(548.221 407.556)">
          <path id="Path_57" data-name="Path 57" class="cls-24" d="M1387.312,873.22v74.192H1261.386v-1h1.4l.1-1.953h1.1V938.59h-1.1v-1.1h-1.5v-2.009l-3.308-9.922V913.224h1.579l-.075-1.429h1.128v-5.64h-.752V904.8h-1.88l-2.036-13.435h.532v-1.8h1.2v-5.914h-1.052v-1h-1.654v-9.124l-3.309-.3v-1.8h113.9Z" transform="translate(-1251.761 -871.416)"/>
        </g>
        <g id="Group_69" data-name="Group 69" transform="translate(557.17 465.707)">
          <rect id="Rectangle_10" data-name="Rectangle 10" class="cls-26" width="129.41" height="4.512"/>
        </g>
        <g id="Group_70" data-name="Group 70" transform="translate(596.547 407.556)">
          <path id="Path_58" data-name="Path 58" class="cls-26" d="M1320.717,871.416v3.609l4.612,4.411v59.831l-2.306,2.681v4.461h16.944v-4.461l-3.609-2.681-.4-59.23,4.01-3.008v-5.615Z" transform="translate(-1320.717 -871.416)"/>
        </g>
        <g id="Group_71" data-name="Group 71" transform="translate(598.853 475.408)">
          <path id="Path_59" data-name="Path 59" class="cls-25" d="M1326.314,968.235h11.029l3.609,2.681v5.464h-16.944v-5.464Z" transform="translate(-1324.008 -968.235)"/>
        </g>
        <g id="Group_72" data-name="Group 72" transform="translate(634.246 407.556)">
          <path id="Path_60" data-name="Path 60" class="cls-26" d="M1374.512,871.416v5.615l1.8,3.208.8,59.029L1374.512,941v5.915h17.846l-.6-4.963-3.008-2.308-.8-59.4,1.6-2.607-.4-6.216Z" transform="translate(-1374.512 -871.416)"/>
        </g>
        <g id="Group_73" data-name="Group 73" transform="translate(562.458 407.556)">
          <path id="Path_61" data-name="Path 61" class="cls-26" d="M1290.323,871.416v6.016l-3.609,1.8v60.032l2.607,3.571v4.574h-16.443v-5.464l2.807-2.681-.2-60.232-3.409-2.206v-5.414Z" transform="translate(-1272.076 -871.416)"/>
        </g>
        <g id="Group_74" data-name="Group 74" transform="translate(659.712 407.556)">
          <path id="Path_62" data-name="Path 62" class="cls-26" d="M1413.055,871.416v5.815l1.6,2.607v60.356l-3.81,2.645v4.574h16.242v-5.464l-3.208-2.681V879.637l2.206-2.607.19-4.663-11.62-.952Z" transform="translate(-1410.85 -871.416)"/>
        </g>
        <g id="Group_75" data-name="Group 75" transform="translate(587.323 419.789)">
          <path id="Path_63" data-name="Path 63" class="cls-25" d="M1321.391,888.871h-9.024s0,3.309-4.813,4.11V940.7s3.61-.4,3.911,4.163l9.926-.373Z" transform="translate(-1307.555 -888.871)"/>
        </g>
        <g id="Group_76" data-name="Group 76" transform="translate(625.724 419.789)">
          <path id="Path_64" data-name="Path 64" class="cls-25" d="M1370.874,888.871h-4.011s.9,3.008-4.512,4.11V940.7s4.612.357,4.261,3.79h6.868l-.755-55.62Z" transform="translate(-1362.351 -888.871)"/>
        </g>
        <g id="Group_77" data-name="Group 77" transform="translate(653.494 418.786)">
          <path id="Path_65" data-name="Path 65" class="cls-25" d="M1412,887.439h-5.015s-.6,4.512-5.013,4.361v47.975s3.208.353,3.208,4.287H1412Z" transform="translate(-1401.977 -887.439)"/>
        </g>
        <g id="Group_78" data-name="Group 78" transform="translate(562.458 407.556)">
          <path id="Path_66" data-name="Path 66" class="cls-25" d="M1275.485,879.036l11.229.2,3.609-1.8v-6.016h-18.248v5.414Z" transform="translate(-1272.076 -871.416)"/>
        </g>
        <g id="Group_79" data-name="Group 79" transform="translate(596.547 407.556)">
          <path id="Path_67" data-name="Path 67" class="cls-25" d="M1320.717,871.416v3.609l4.612,4.411,10.628.6,4.01-3.008v-5.615Z" transform="translate(-1320.717 -871.416)"/>
        </g>
        <g id="Group_80" data-name="Group 80" transform="translate(634.246 407.556)">
          <path id="Path_68" data-name="Path 68" class="cls-25" d="M1374.512,871.416v5.615l1.8,3.208h11.63l1.6-2.607-.4-6.216Z" transform="translate(-1374.512 -871.416)"/>
        </g>
        <g id="Group_81" data-name="Group 81" transform="translate(661.918 407.556)">
          <path id="Path_69" data-name="Path 69" class="cls-25" d="M1414,871.416v5.815l1.6,2.607,9.224-.2,2.206-2.607.19-4.663Z" transform="translate(-1413.997 -871.416)"/>
        </g>
        <g id="Group_82" data-name="Group 82" transform="translate(659.712 475.408)">
          <path id="Path_70" data-name="Path 70" class="cls-25" d="M1410.85,976.38v-4.574l3.81-2.645,9.224-.926,3.208,2.681v5.464Z" transform="translate(-1410.85 -968.235)"/>
        </g>
        <g id="Group_83" data-name="Group 83" transform="translate(634.246 475.408)">
          <path id="Path_71" data-name="Path 71" class="cls-25" d="M1392.358,975.879l-.6-4.963-3.008-2.308-11.63-.373-2.607,1.728v5.915Z" transform="translate(-1374.512 -968.235)"/>
        </g>
        <g id="Group_84" data-name="Group 84" transform="translate(598.853 475.408)">
          <path id="Path_72" data-name="Path 72" class="cls-25" d="M1324.008,975.378v-4.461l2.306-2.681h11.029l3.609,2.681v4.461Z" transform="translate(-1324.008 -968.235)"/>
        </g>
        <g id="Group_85" data-name="Group 85" transform="translate(563.26 475.408)">
          <path id="Path_73" data-name="Path 73" class="cls-25" d="M1289.663,976.38v-4.574l-2.607-3.571h-11.029l-2.807,2.681v5.464Z" transform="translate(-1273.22 -968.235)"/>
        </g>
        <g id="Group_86" data-name="Group 86" transform="translate(460.695 331.692)">
          <path id="Path_74" data-name="Path 74" class="cls-26" d="M1410.5,833.012s24.364-9.023,28.273-21.656c0,0-70.683-27.371-75.5-40.6,0,0-8.422-7.52-26.769,0,0,0-15.537-8.422-33.485-7.52a67.153,67.153,0,0,0-19.151,13.836s-32.485,3.308-44.516,2.105c0,0-5.714-7.52-18.948-8.422,0,0-34.891,1.2-93.543,41.207a62.3,62.3,0,0,0,26.167,16.543l2.406-.3,1.5-7.82,3.308-.3v-3.911l4.511-.8,4.913,2.206v4.812l3.007,1V828.6h29.376V815.366l5.715,3.509v4.512l3.309,3.309-.2,1.9h116.4l24.262,3.56Z" transform="translate(-1126.867 -763.163)"/>
        </g>
        <g id="Group_87" data-name="Group 87" transform="translate(460.695 374.27)">
          <path id="Path_75" data-name="Path 75" class="cls-24" d="M1438.775,829.533s-41.065,25.707-96.649-5.614h-22.46s-33.081,21.473-111.89,13.134l-5.715-3.509v5.917s-22.558,2.1-32.384-2.709v-1l-4.913-1.4h-4.511v1s-28.073-1.6-33.387-5.213c0,0,15.339,19.851,28.574,16.242l1.5-7.82,3.308-.3v-1.6l4.47-.8,4.954,1.8v2.907l3.007,1v5.213h29.376v-6.818l5.715,1.6,3.309,3.309-.2,1.9h116.4l24.262,3.559,58.953.852S1436.068,843.369,1438.775,829.533Z" transform="translate(-1126.867 -823.919)"/>
        </g>
        <g id="Group_88" data-name="Group 88" transform="translate(636.853 331.528)">
          <path id="Path_76" data-name="Path 76" class="cls-25" d="M1378.231,763.161s31.331,16.335,39.1,42.51c0,0,46.719,30.88,96.648,5.614,0,0-69.48-26.769-75.5-40.6,0,0-11.129-8.121-26.77,0C1411.716,770.681,1394.676,761.356,1378.231,763.161Z" transform="translate(-1378.231 -762.929)"/>
        </g>
        <g id="Group_89" data-name="Group 89" transform="translate(576.777 329.655)">
          <path id="Path_77" data-name="Path 77" class="cls-25" d="M1292.507,778.518V763.564l63.183-3.308,43.813,6.332s-7.419-.016-13.435,3.293c0,0-13.13-9.024-33.485-7.52,0,0-12.834,5.113-19.151,13.836Z" transform="translate(-1292.507 -760.256)"/>
        </g>
        <g id="Group_90" data-name="Group 90" transform="translate(548.221 322.737)">
          <path id="Path_78" data-name="Path 78" class="cls-26" d="M1251.761,753.994v8.221L1343.5,757.3l43.813,6.332,6.521.419V757.3l-47.124-6.918Z" transform="translate(-1251.761 -750.384)"/>
        </g>
        <g id="Group_91" data-name="Group 91" transform="translate(639.641 322.737)">
          <path id="Path_79" data-name="Path 79" class="cls-25" d="M1382.209,750.518l.318,6.784,50.334,6.752V757.3l-47.124-6.918Z" transform="translate(-1382.209 -750.384)"/>
        </g>
        <g id="Group_92" data-name="Group 92" transform="translate(650.775 287.899)">
          <path id="Path_80" data-name="Path 80" class="cls-25" d="M1468.191,728.606c-36.985,15.328-61.961-8.181-61.961-8.181l-8.134.7v-14.8h8.134s9.625-15.641,34.288,5.125C1440.519,711.449,1461.573,728.894,1468.191,728.606Z" transform="translate(-1398.097 -700.674)"/>
        </g>
        <g id="Group_93" data-name="Group 93" transform="translate(521.199 283.609)">
          <path id="Path_81" data-name="Path 81" class="cls-26" d="M1412.872,726.774a1.618,1.618,0,0,1-.217.169,5.075,5.075,0,0,1-.481.409c-.289.24-.65.53-1.107.891-4.475,3.489-16.7,12.272-28.779,14.389v-2.045l-50.651-6.762-91.413,3.466a4.662,4.662,0,0,1-.554-.048c-3.345-.385-20.718-2.936-26.469-16.483,0,0,40.858-37.609,64.319-15.953h33.736s11.983-22.859,31.522-.313v14.8l8.133-.7S1375.888,742.1,1412.872,726.774Z" transform="translate(-1213.202 -694.552)"/>
        </g>
        <g id="Group_94" data-name="Group 94" transform="translate(521.199 307.649)">
          <path id="Path_82" data-name="Path 82" class="cls-24" d="M1412.872,737.037a1.617,1.617,0,0,1-.217.169c-.12.1-.264.24-.481.409-.289.24-.65.53-1.107.891-5.077,4.042-19.827,15.087-28.779,14.389v-3.537l-50.651-5.27-91.413,3.465a4.674,4.674,0,0,1-.554-.048c-3.561-.312-22.618-2.6-26.469-16.483l8.061,1.492s13.86,9.914,55.055,7.508c0,0,42.4.312,49.617-9l16.843-1.467,8.133-.7S1375.888,752.365,1412.872,737.037Z" transform="translate(-1213.202 -728.856)"/>
        </g>
        <g id="Group_95" data-name="Group 95" transform="translate(583.386 278.372)">
          <path id="Path_83" data-name="Path 83" class="cls-25" d="M1301.938,700.8V690.237l43.79-3.158v6.86s-6.363,4.419-7.919,8.63H1304.07Z" transform="translate(-1301.938 -687.079)"/>
        </g>
        <g id="Group_96" data-name="Group 96" transform="translate(627.176 278.372)">
          <path id="Path_84" data-name="Path 84" class="cls-24" d="M1395.253,702.268v-11.73l-30.83-3.459v6.86s11.28-7.763,23.611,8.329Z" transform="translate(-1364.423 -687.079)"/>
        </g>
        <g id="Group_97" data-name="Group 97" transform="translate(683.773 279.424)">
          <path id="Path_85" data-name="Path 85" class="cls-27" d="M1445.182,688.581" transform="translate(-1445.182 -688.581)"/>
        </g>
        <g id="Group_98" data-name="Group 98" transform="translate(566.068 270)">
          <path id="Path_86" data-name="Path 86" class="cls-26" d="M1277.226,679.544v9.2l61.109-5.241,44.766,6.466V683.5l-44.766-8.372S1292.265,682.152,1277.226,679.544Z" transform="translate(-1277.226 -675.133)"/>
        </g>
        <g id="Group_99" data-name="Group 99" transform="translate(539.599 238.135)">
          <path id="Path_87" data-name="Path 87" class="cls-26" d="M1371.8,669.9s22.258.05,26.067-13.385c0,0-18.648-14.638-27.872-19.45,0,0-7.018-5.615-16.643,2.005l-7.018-.2s-12.633-18.849-28.674-2.607l-31.682,2.407s-15.641-15.039-34.89,1.8l-11.63,11.029s3.81,10.828,26.469,14.437c0,0,25.767,5.414,61.109-4.412Z" transform="translate(-1239.457 -629.664)"/>
        </g>
        <g id="Group_100" data-name="Group 100" transform="translate(539.599 253.758)">
          <path id="Path_88" data-name="Path 88" class="cls-24" d="M1239.457,658.173s19.049-1,34.891,6.216c0,0,57.25-3.128,70.784-12.432l5.414,1.4s19.05,13.034,47.323,9.825c0,0-1.2,13.535-26.067,13.385l-45.942-8.052S1256.9,686.647,1239.457,658.173Z" transform="translate(-1239.457 -651.957)"/>
        </g>
        <g id="Group_101" data-name="Group 101" transform="translate(646.476 243.142)">
          <path id="Path_89" data-name="Path 89" class="cls-25" d="M1391.963,641.008v6.417l4.21,1.4s26.269,14.638,47.323,9.825l-23.446-16.868s-11.245-10.8-21.07-.577Z" transform="translate(-1391.963 -636.809)"/>
        </g>
        <g id="Group_102" data-name="Group 102" transform="translate(587.715 234.107)">
          <path id="Path_90" data-name="Path 90" class="cls-25" d="M1308.115,636.829v-8.885l41.717-4.027,19.25,4.712-.6,8.2-1.6.322s-12.332-19.25-28.674-2.607Z" transform="translate(-1308.115 -623.917)"/>
        </g>
        <g id="Group_103" data-name="Group 103" transform="translate(577.397 225.735)">
          <path id="Path_91" data-name="Path 91" class="cls-26" d="M1293.392,617.234v8.422l52.035-5.314,29.777,6.617v-6.617l-30.529-8.372Z" transform="translate(-1293.392 -611.971)"/>
        </g>
        <g id="Group_104" data-name="Group 104" transform="translate(628.68 225.735)">
          <path id="Path_92" data-name="Path 92" class="cls-25" d="M1366.569,611.971v8.448l30.529,6.54v-6.617Z" transform="translate(-1366.569 -611.971)"/>
        </g>
        <g id="Group_105" data-name="Group 105" transform="translate(552.583 202.721)">
          <path id="Path_93" data-name="Path 93" class="cls-26" d="M1392.282,599.89s-10.828,11.179-27.671,10.628l-30.53-8.372-51.283,5.264s-21.205,1.353-24.814-11.731c0,0,20.754-20.152,38.048-12.181l29.1-.6s11.455-9.074,24.212.952C1349.346,583.848,1366.515,574.223,1392.282,599.89Z" transform="translate(-1257.984 -579.131)"/>
        </g>
        <g id="Group_106" data-name="Group 106" transform="translate(552.583 212.05)">
          <path id="Path_94" data-name="Path 94" class="cls-24" d="M1392.282,603.872s-36.444-.4-42.936-11.43c0,0-62.737,16.042-91.362,7.218,0,0,4.4,13.826,24.814,11.731l51.283-5.264,30.53,8.372S1379.549,617.106,1392.282,603.872Z" transform="translate(-1257.984 -592.443)"/>
        </g>
        <g id="Group_107" data-name="Group 107" transform="translate(643.944 205.386)">
          <path id="Path_95" data-name="Path 95" class="cls-25" d="M1388.35,584.986V589.6s8.547,12.633,42.936,11.429C1431.286,601.027,1410.142,575.683,1388.35,584.986Z" transform="translate(-1388.35 -582.934)"/>
        </g>
        <g id="Group_108" data-name="Group 108" transform="translate(592.536 197.411)">
          <path id="Path_96" data-name="Path 96" class="cls-25" d="M1314.995,581.191v-5.225l33.687-4.412v6.015a15.646,15.646,0,0,0-6.492,3.059Z" transform="translate(-1314.995 -571.555)"/>
        </g>
        <g id="Group_109" data-name="Group 109" transform="translate(626.224 197.411)">
          <path id="Path_97" data-name="Path 97" class="cls-24" d="M1384.2,580.4v-3.537l-21.132-5.309v6.015a19.752,19.752,0,0,1,17.721,4.011Z" transform="translate(-1363.064 -571.555)"/>
        </g>
        <g id="Group_110" data-name="Group 110" transform="translate(583.112 189.992)">
          <path id="Path_98" data-name="Path 98" class="cls-26" d="M1301.547,573.4l43.112-5.013L1373.132,575v-6.617l-28.474-7.419-43.112,6.016Z" transform="translate(-1301.547 -560.969)"/>
        </g>
        <g id="Group_111" data-name="Group 111" transform="translate(626.224 189.992)">
          <path id="Path_99" data-name="Path 99" class="cls-25" d="M1363.064,560.969v7.419L1391.538,575v-6.617Z" transform="translate(-1363.064 -560.969)"/>
        </g>
        <g id="Group_112" data-name="Group 112" transform="translate(559.05 164.207)">
          <path id="Path_100" data-name="Path 100" class="cls-26" d="M1291.274,555.976s-21.656,1-24.062-13.836c0,0,13.034-10.427,24.062-12.833,0,0,8.021-3.208,13.234,5.414,0,0,15.44-.6,19.049-2.406,0,0,10.427-17.044,35.091-1.805l28.274,16.242s-12.34,13.682-24.062,10.627l-28.474-7.419Z" transform="translate(-1267.212 -524.175)"/>
        </g>
        <g id="Group_113" data-name="Group 113" transform="translate(559.05 173.75)">
          <path id="Path_101" data-name="Path 101" class="cls-24" d="M1267.212,546.214s17.244,6.617,45.919,0c0,0,27.954-3.76,35.492-8.422,0,0,23.661,18.248,38.3,13.034,0,0-11.749,13.835-24.062,10.627l-28.474-7.419-43.112,6.016s-23.461,2.13-24.062-14.977" transform="translate(-1267.212 -537.792)"/>
        </g>
        <g id="Group_114" data-name="Group 114" transform="translate(638.636 165.199)">
          <path id="Path_102" data-name="Path 102" class="cls-25" d="M1380.776,525.59l1.824,8.551s25.065,18.648,38.3,13.034C1420.9,547.176,1393.991,529.471,1380.776,525.59Z" transform="translate(-1380.776 -525.59)"/>
        </g>
        <g id="Group_115" data-name="Group 115" transform="translate(585.526 154.701)">
          <path id="Path_103" data-name="Path 103" class="cls-25" d="M1304.992,524.728v-9.3l40.7-4.812v10.184Z" transform="translate(-1304.992 -510.61)"/>
        </g>
        <g id="Group_116" data-name="Group 116" transform="translate(626.224 154.701)">
          <path id="Path_104" data-name="Path 104" class="cls-24" d="M1389.292,527.13v-8.3l-26.228-8.222v10.184S1370,515.176,1389.292,527.13Z" transform="translate(-1363.064 -510.61)"/>
        </g>
        <g id="Group_117" data-name="Group 117" transform="translate(586.974 164.885)">
          <path id="Path_105" data-name="Path 105" class="cls-25" d="M1307.058,528.935s4.532-2.156,9.372,6.075c0,0,13.635-.4,19.049-2.406,0,0,4.422-6.812,10.828-7.462Z" transform="translate(-1307.058 -525.142)"/>
        </g>
        <g id="Group_118" data-name="Group 118" transform="translate(564.864 134.772)">
          <path id="Path_106" data-name="Path 106" class="cls-26" d="M1363.1,510.324s16.483-1.2,19.089-10.828c0,0-14.638-15.44-30.077-11.029,0,0-10.828-13.617-26.669-.793,0,0-13.435,3.6-18.047,1.394,0,0-10.627-10.905-31.882,7.18,0,0,7.235,12.271,20.662,11.669v-1l40.7-4.813Z" transform="translate(-1275.509 -482.173)"/>
        </g>
        <g id="Group_119" data-name="Group 119" transform="translate(564.864 141.145)">
          <path id="Path_107" data-name="Path 107" class="cls-24" d="M1275.509,498.969s26.068,5.253,49.729-1.364c0,0,10.5-8.021,22.2-6.016,0,0,19.312,19.25,34.751,10.628,0,0-1.762,9.883-19.089,10.828l-26.228-8.222-40.7,4.813v1S1284.132,513.167,1275.509,498.969Z" transform="translate(-1275.509 -491.267)"/>
        </g>
        <g id="Group_120" data-name="Group 120" transform="translate(589.69 125.225)">
          <path id="Path_108" data-name="Path 108" class="cls-25" d="M1310.933,481.907l37.737-3.809V468.55l-37.737,6.678Z" transform="translate(-1310.933 -468.55)"/>
        </g>
        <g id="Group_121" data-name="Group 121" transform="translate(589.69 134.772)">
          <path id="Path_109" data-name="Path 109" class="cls-25" d="M1317.99,489.068s-3.721-2.938-7.057-3.086l37.737-3.81s-8.222,1.5-12.633,5.5C1336.037,487.674,1322.854,491.707,1317.99,489.068Z" transform="translate(-1310.933 -482.173)"/>
        </g>
        <g id="Group_122" data-name="Group 122" transform="translate(627.427 125.225)">
          <path id="Path_110" data-name="Path 110" class="cls-24" d="M1382.618,483.694v-9.53l-17.837-5.614V478.1s7.9-2.212,14.037,6.294Z" transform="translate(-1364.781 -468.55)"/>
        </g>
        <g id="Group_123" data-name="Group 123" transform="translate(573.487 107.251)">
          <path id="Path_111" data-name="Path 111" class="cls-26" d="M1378.448,456.866s-6.836,11.43-18.858,9.625l-17.837-5.614-37.737,6.678s-10.589-.462-16.2-12.694l12.633-6.417a20.585,20.585,0,0,1,17.646,1.4l10.627-.6s10.427-12.713,29.076-2.145Z" transform="translate(-1287.813 -442.903)"/>
        </g>
        <g id="Group_124" data-name="Group 124" transform="translate(573.487 111.632)">
          <path id="Path_112" data-name="Path 112" class="cls-24" d="M1378.448,458.736l-18.858-8.916s-14.228-3.208-24.655,4.458c0,0-36.7,7.867-47.122,2.453,0,0,2.327,11.352,16.2,12.694l37.737-6.678,17.837,5.614S1373.034,470.968,1378.448,458.736Z" transform="translate(-1287.813 -449.155)"/>
        </g>
        <g id="Group_125" data-name="Group 125" transform="translate(624.018 100.16)">
          <path id="Path_113" data-name="Path 113" class="cls-24" d="M1376.255,442.487v-5.893l-16.338-3.81v7.745S1366.363,437.7,1376.255,442.487Z" transform="translate(-1359.917 -432.784)"/>
        </g>
        <g id="Group_126" data-name="Group 126" transform="translate(594.335 100.16)">
          <path id="Path_114" data-name="Path 114" class="cls-25" d="M1317.562,444.1V437l29.683-4.211v7.745s-7.219,2.08-9.625,5.69l-10.627.6A15.635,15.635,0,0,0,1317.562,444.1Z" transform="translate(-1317.562 -432.784)"/>
        </g>
        <g id="Group_127" data-name="Group 127" transform="translate(578.7 85.028)">
          <path id="Path_115" data-name="Path 115" class="cls-26" d="M1356.908,430.134l-16.338-3.81-29.683,4.211s-11.624,1.6-15.635-10.427c0,0,12.232-11.029,20.052-5.614,0,0,16.643,4.411,21.856,2.406,0,0,11.029-15.661,37.9,4.9C1375.059,421.8,1367.04,432.5,1356.908,430.134Z" transform="translate(-1295.252 -411.192)"/>
        </g>
        <g id="Group_128" data-name="Group 128" transform="translate(578.7 87.878)">
          <path id="Path_116" data-name="Path 116" class="cls-24" d="M1375.059,423.019s-26.468-15.329-36.9-2.9c0,0-37.1,6.818-42.911,1.2,0,0,1.995,11.229,15.635,10.427l29.683-4.211,16.338,3.81A17.6,17.6,0,0,0,1375.059,423.019Z" transform="translate(-1295.252 -415.259)"/>
        </g>
        <g id="Group_129" data-name="Group 129" transform="translate(598.753 77.501)">
          <path id="Path_117" data-name="Path 117" class="cls-25" d="M1323.865,411.28v-7.419l26.668-3.409v9.411s-3.768,1.461-4.812,3.823C1345.721,413.686,1334.091,416.093,1323.865,411.28Z" transform="translate(-1323.865 -400.452)"/>
        </g>
        <g id="Group_130" data-name="Group 130" transform="translate(625.421 77.501)">
          <path id="Path_118" data-name="Path 118" class="cls-24" d="M1371.343,407.37l-.8-3.91-8.623-3.008v9.411S1368.439,406.41,1371.343,407.37Z" transform="translate(-1361.919 -400.452)"/>
        </g>
        <g id="Group_131" data-name="Group 131" transform="translate(580.705 67.149)">
          <path id="Path_119" data-name="Path 119" class="cls-24" d="M1352.02,401.813s14.872-.166,20.687-5.78c0,0-9.023-17.245-39.7-7.219,0,0-21.255,5.815-34.891,2.607,0,0,3.61,7.807,17.044,9.317l1-1.3,26.668-3.409,8.623,3.008Z" transform="translate(-1298.113 -385.681)"/>
        </g>
        <g id="Group_132" data-name="Group 132" transform="translate(580.705 65.4)">
          <path id="Path_120" data-name="Path 120" class="cls-26" d="M1298.113,390.674s16.443-11.078,26.068-5.74h8.221s15.039-3.935,22.658,0A44.332,44.332,0,0,0,1333,388.067S1308.941,392.679,1298.113,390.674Z" transform="translate(-1298.113 -383.185)"/>
        </g>
        <g id="Group_133" data-name="Group 133" transform="translate(604.768 56.647)">
          <path id="Path_121" data-name="Path 121" class="cls-25" d="M1332.448,379.448V373.7l17.646-3.008v8.754l-7.419,1.749h-8.221Z" transform="translate(-1332.448 -370.695)"/>
        </g>
        <g id="Group_134" data-name="Group 134" transform="translate(622.414 56.647)">
          <path id="Path_122" data-name="Path 122" class="cls-24" d="M1365.348,379.448v-3.5l-7.72-5.251v7.82Z" transform="translate(-1357.627 -370.695)"/>
        </g>
        <g id="Group_135" data-name="Group 135" transform="translate(583.713 48.626)">
          <path id="Path_123" data-name="Path 123" class="cls-24" d="M1348.825,372.522s12.533,2.168,18.749-5.251c0,0-15.841-.2-24.864-8.021,0,0-30.078,10.158-40.305,6.783,0,0,7.219,6.515,21.054,6.784v-2.538l17.647-3.008Z" transform="translate(-1302.405 -359.25)"/>
        </g>
        <g id="Group_136" data-name="Group 136" transform="translate(583.713 44.958)">
          <path id="Path_124" data-name="Path 124" class="cls-26" d="M1367.574,365.7s-3.81-12.633-24.664-10.628l-15.039-.216s-12.232-5.066-25.466,9.606c0,0,20.654,3.042,40.305-6.783C1342.71,357.684,1356.345,368.311,1367.574,365.7Z" transform="translate(-1302.405 -354.016)"/>
        </g>
        <g id="Group_137" data-name="Group 137" transform="translate(608.483 38.349)">
          <path id="Path_125" data-name="Path 125" class="cls-25" d="M1338.446,346.39l-.7,5.418,1.552.243h17.552v-4.308l-5.975-3.158Z" transform="translate(-1337.749 -344.586)"/>
        </g>
        <g id="Group_138" data-name="Group 138" transform="translate(621.612 38.349)">
          <path id="Path_126" data-name="Path 126" class="cls-24" d="M1356.483,344.586v7.466h5.975v-4.308Z" transform="translate(-1356.483 -344.586)"/>
        </g>
        <g id="Group_139" data-name="Group 139" transform="translate(588.676 12.466)">
          <path id="Path_127" data-name="Path 127" class="cls-26" d="M1348.4,336.694s15.23.3,20.494-7.218L1348.4,309.623s-2.967-3.158-10.336,0c0,0-6.016-4.812-10.979.6l-17.6,16.243s9.124,8.271,20.5,8.873l12.432-1.8Z" transform="translate(-1309.487 -307.652)"/>
        </g>
        <g id="Group_140" data-name="Group 140" transform="translate(588.676 26.987)">
          <path id="Path_128" data-name="Path 128" class="cls-24" d="M1368.891,335.675s-16.142.737-25.666-7.3c0,0-25.316,9.407-33.737,4.294,0,0,9.124,9.775,20.5,8.873l12.432-1.8,5.975,3.158S1364.83,344.848,1368.891,335.675Z" transform="translate(-1309.487 -328.373)"/>
        </g>
        <g id="Group_141" data-name="Group 141" transform="translate(622.414 13.141)">
          <path id="Path_129" data-name="Path 129" class="cls-25" d="M1359.813,308.615l-2.185,13.847a38.324,38.324,0,0,0,25.666,7.3L1362.8,309.911A3.979,3.979,0,0,0,1359.813,308.615Z" transform="translate(-1357.628 -308.615)"/>
        </g>
        <g id="Group_142" data-name="Group 142" transform="translate(611.535)">
          <path id="Path_130" data-name="Path 130" class="cls-25" d="M1342.105,302.33l1.2-9.759,4.361-2.707,6.768,4.06.732,9.08a11.256,11.256,0,0,0-7.349,1.3S1344.8,301.682,1342.105,302.33Z" transform="translate(-1342.105 -289.864)"/>
        </g>
        <g id="Group_143" data-name="Group 143" transform="translate(617.1)">
          <path id="Path_131" data-name="Path 131" class="cls-24" d="M1350.045,289.864l.151,14.437s1.764-2.142,7.349-1.3l-.732-9.08-6.768-4.06" transform="translate(-1350.045 -289.864)"/>
        </g>
        <g id="Group_144" data-name="Group 144" transform="translate(435.429 452.447)">
          <path id="Path_132" data-name="Path 132" class="cls-26" d="M1090.815,950.987h9.926v-4.261s-3.309-7.67-4.963-11.254c0,0-1.855,10.453-4.963,10.453Z" transform="translate(-1090.815 -935.472)"/>
        </g>
        <g id="Group_145" data-name="Group 145" transform="translate(440.392 452.447)">
          <path id="Path_133" data-name="Path 133" class="cls-25" d="M1113.01,950.987h-10.151v-4.261l-4.963-11.254s8.422,13.861,15.114,11.455Z" transform="translate(-1097.896 -935.472)"/>
        </g>
        <g id="Group_146" data-name="Group 146" transform="translate(435.429 467.963)">
          <path id="Path_134" data-name="Path 134" class="cls-26" d="M1100.74,968.49V957.611h-9.926v11.017Z" transform="translate(-1090.815 -957.611)"/>
        </g>
        <g id="Group_147" data-name="Group 147" transform="translate(445.355 467.963)">
          <rect id="Rectangle_11" data-name="Rectangle 11" class="cls-25" width="7.419" height="10.878"/>
        </g>
        <g id="Group_148" data-name="Group 148" transform="translate(690.791 475.408)">
          <path id="Path_135" data-name="Path 135" class="cls-26" d="M1455.2,1008.062V991.037l3.008-.019v-4.211H1455.2v-18.2l13.034-.373,10.728,3.571v37.659l-10.728,1.515Z" transform="translate(-1455.196 -968.235)"/>
        </g>
        <g id="Group_149" data-name="Group 149" transform="translate(703.825 475.408)">
          <path id="Path_136" data-name="Path 136" class="cls-25" d="M1473.795,968.235v42.745l10.728-1.515V971.807Z" transform="translate(-1473.795 -968.235)"/>
        </g>
        <g id="Group_150" data-name="Group 150" transform="translate(688.184 515.235)">
          <path id="Path_137" data-name="Path 137" class="cls-25" d="M1474.518,1026.939v3.942l3.327,1v4.01l-19.25.9-1.5-8.121h-5.614l2.607-3.61,13.034,2.919Z" transform="translate(-1451.477 -1025.065)"/>
        </g>
        <g id="Group_151" data-name="Group 151" transform="translate(692.195 471.322)">
          <path id="Path_138" data-name="Path 138" class="cls-25" d="M1478.072,969.567v-3.077l-10.4-4.087-10.477,1.4v3.056h10.477Z" transform="translate(-1457.199 -962.404)"/>
        </g>
        <g id="Group_152" data-name="Group 152" transform="translate(688.184 454.929)">
          <path id="Path_139" data-name="Path 139" class="cls-26" d="M1465.965,955.406l-14.488,1.8s11.48-7.82,11.48-15.641l3.008-2.557Z" transform="translate(-1451.477 -939.013)"/>
        </g>
        <g id="Group_153" data-name="Group 153" transform="translate(702.672 454.929)">
          <path id="Path_140" data-name="Path 140" class="cls-25" d="M1472.15,939.013v16.393l15.49,6.016s-12.332-8.272-11.881-19.25Z" transform="translate(-1472.15 -939.013)"/>
        </g>
        <g id="Group_154" data-name="Group 154" transform="translate(714.552 522.905)">
          <rect id="Rectangle_12" data-name="Rectangle 12" class="cls-24" width="170.141" height="11.379" transform="translate(0)"/>
        </g>
        <g id="Group_155" data-name="Group 155" transform="translate(884.694 522.905)">
          <path id="Path_141" data-name="Path 141" class="cls-23" d="M1731.881,1036.01Z" transform="translate(-1731.881 -1036.01)"/>
        </g>
        <g id="Group_156" data-name="Group 156" transform="translate(711.225 517.109)">
          <path id="Path_142" data-name="Path 142" class="cls-25" d="M1645.892,1028.783v4.752h-158.21v-.852l-3.327-1v-3.942Z" transform="translate(-1484.355 -1027.739)"/>
        </g>
        <g id="Group_157" data-name="Group 157" transform="translate(714.552 493.98)">
          <rect id="Rectangle_13" data-name="Rectangle 13" class="cls-24" width="155.201" height="24.154" transform="translate(0 0)"/>
        </g>
        <g id="Group_158" data-name="Group 158" transform="translate(714.552 485.859)">
          <rect id="Rectangle_14" data-name="Rectangle 14" class="cls-25" width="158.21" height="8.121" transform="translate(0 0)"/>
        </g>
        <g id="Group_159" data-name="Group 159" transform="translate(784.233 468.915)">
          <rect id="Rectangle_15" data-name="Rectangle 15" class="cls-26" width="20.453" height="16.944" transform="translate(0 0)"/>
        </g>
        <g id="Group_160" data-name="Group 160" transform="translate(797.668 468.915)">
          <rect id="Rectangle_16" data-name="Rectangle 16" class="cls-25" width="7.018" height="16.944" transform="translate(0 0)"/>
        </g>
        <g id="Group_161" data-name="Group 161" transform="translate(858.024 470.319)">
          <rect id="Rectangle_17" data-name="Rectangle 17" class="cls-26" width="13.234" height="15.54" transform="translate(0 0)"/>
        </g>
        <g id="Group_162" data-name="Group 162" transform="translate(866.246 470.319)">
          <rect id="Rectangle_18" data-name="Rectangle 18" class="cls-24" width="5.013" height="15.54" transform="translate(0 0)"/>
        </g>
        <g id="Group_163" data-name="Group 163" transform="translate(779.02 449.064)">
          <path id="Path_143" data-name="Path 143" class="cls-26" d="M1581.092,950.5h30.278v-4.011h-4.612s-8.021-4.412-9.424-7.62l-.8-7.218-3.81-1-.4,7.419s-3.208,6.466-6.016,7.544h-5.213Z" transform="translate(-1581.092 -930.644)"/>
        </g>
        <g id="Group_164" data-name="Group 164" transform="translate(853.212 454.277)">
          <path id="Path_144" data-name="Path 144" class="cls-26" d="M1691.772,954.124h-4.813v-4.21h4.01s4.613-4.612,6.417-8.823v-3.008h2.606v3.409s1.8,8.623,5.013,8.422l2.807.2v4.01Z" transform="translate(-1686.959 -938.083)"/>
        </g>
        <g id="Group_165" data-name="Group 165" transform="translate(227.59 526.184)">
          <path id="Path_145" data-name="Path 145" class="cls-24" d="M1451.348,1041.47s61.76-4.311,76.8,7.319c0,0,46.922-7.62,52.336,4.411v10.227l-39.7,3.008v6.617s-71.585,6.016-96.249,0v7.219s-85.422,16.843-140.164,0c0,0-56.546,7.218-84.218-4.211,0,0-186.483,10.828-234.006-7.82,0,0-51.734,10.828-101.663-1.2,0,0-79.406,4-90.234-2.814V1048.79s42.711-9.424,70.382-5.515l137.456,4.211v5.714h145.577l-.3-2.105,133.847,2.105v-4.411h170.141Z" transform="translate(-794.245 -1040.689)"/>
        </g>
        <g id="Group_166" data-name="Group 166" transform="translate(963.297 538.696)">
          <path id="Path_146" data-name="Path 146" class="cls-28" d="M1894.573,1058.542s-37.7,4.011-50.531,0c0,0,10.828,4.011,10.828,13.235,0,0,34.089-1.2,39.7-3.008Z" transform="translate(-1844.042 -1058.542)"/>
        </g>
        <g id="Group_167" data-name="Group 167" transform="translate(877.876 549.718)">
          <path id="Path_147" data-name="Path 147" class="cls-28" d="M1722.153,1083.1v-8.83s68.895,4.2,96.007,0l.242,8.83S1737.392,1088.915,1722.153,1083.1Z" transform="translate(-1722.153 -1074.27)"/>
        </g>
        <g id="Group_168" data-name="Group 168" transform="translate(737.512 551.931)">
          <path id="Path_148" data-name="Path 148" class="cls-28" d="M1662.228,1080.922s-114.3,11.744-140.364-3.495l.2,13.836s68.779,20.252,140.164,0Z" transform="translate(-1521.864 -1077.427)"/>
        </g>
        <g id="Group_169" data-name="Group 169" transform="translate(653.494 551.931)">
          <path id="Path_149" data-name="Path 149" class="cls-28" d="M1401.977,1087.052v-9.625s68.377,8.422,84.018,0l.2,13.836S1430.651,1100.286,1401.977,1087.052Z" transform="translate(-1401.977 -1077.427)"/>
        </g>
        <g id="Group_170" data-name="Group 170" transform="translate(419.488 541.905)">
          <path id="Path_150" data-name="Path 150" class="cls-28" d="M1068.068,1074.951v-11.83s116.1,16.042,234.006,10.026v9.625S1098.547,1092.4,1068.068,1074.951Z" transform="translate(-1068.068 -1063.121)"/>
        </g>
        <g id="Group_171" data-name="Group 171" transform="translate(317.824 538.696)">
          <path id="Path_151" data-name="Path 151" class="cls-28" d="M923,1072.378v-13.836s70.783,6.417,101.664,3.209v11.83S956.489,1085.011,923,1072.378Z" transform="translate(-923.002 -1058.542)"/>
        </g>
        <g id="Group_172" data-name="Group 172" transform="translate(227.59 534.285)">
          <path id="Path_152" data-name="Path 152" class="cls-28" d="M794.245,1052.248v15.433s44.315,9.03,90.234,2.814v-13.836S804.471,1061.071,794.245,1052.248Z" transform="translate(-794.245 -1052.248)"/>
        </g>
        <g id="Group_179" data-name="Group 179" transform="translate(724.979 497.85)">
          <path id="Path_159" data-name="Path 159" class="cls-26" d="M1638.561,1016.673h-131.8a2.776,2.776,0,0,0-2.776-2.776v-10.863a2.776,2.776,0,0,0,2.776-2.776h131.8a2.776,2.776,0,0,0,2.777,2.776V1013.9A2.777,2.777,0,0,0,1638.561,1016.673Z" transform="translate(-1503.981 -1000.258)"/>
        </g>
        <g id="Group_180" data-name="Group 180" transform="translate(626.001 270.32)">
          <path id="Path_160" data-name="Path 160" class="cls-25" d="M1362.746,675.59l1.175,8.052,44.766,6.467v-6.467l-45.941-8.052" transform="translate(-1362.746 -675.59)"/>
        </g>
        <g id="Group_181" data-name="Group 181" transform="translate(447.761 525.462)">
          <path id="Path_161" data-name="Path 161" class="cls-24" d="M1108.411,1046.877h123.32v-5.715l-123.019-1.5Z" transform="translate(-1108.411 -1039.658)"/>
        </g>
      </g>
    </g>
  </g>
</svg>
